<svg width="60" height="60" viewBox="0 0 60 60" fill="none" xmlns="http://www.w3.org/2000/svg">
<path d="M38.654 48.9249C35.901 49.0182 32.9897 49.0654 30 49.0654C21.3579 49.0654 13.7114 48.6777 9.54483 48.0281C5.09308 47.3341 3.32428 45.26 2.78458 40.1028C2.19452 34.4604 2.19452 25.6206 2.78458 19.9782C3.32428 14.821 5.09308 12.7473 9.54483 12.0534C10.2676 11.9403 11.1168 11.8332 12.0694 11.7343C12.7135 11.6675 13.1813 11.0916 13.1145 10.4475C13.0476 9.80392 12.4709 9.33563 11.8277 9.40292C10.8353 9.50591 9.94583 9.61852 9.18365 9.73709C6.40686 10.1701 4.46045 11.1026 3.05878 12.6714C1.61636 14.2845 0.788727 16.5289 0.453186 19.7346C-0.151062 25.5139 -0.151062 34.5676 0.453186 40.3468C0.788727 43.5525 1.61636 45.7965 3.05878 47.4101C4.46045 48.9789 6.40686 49.9113 9.18365 50.3439C13.4624 51.0113 21.2444 51.4096 30 51.4096C33.0157 51.4096 35.9541 51.362 38.7332 51.2677C39.38 51.2457 39.8868 50.7037 39.8648 50.0569C39.8428 49.4101 39.3036 48.9033 38.654 48.9249Z" fill="#13294B"/>
<path d="M59.5461 19.7346C59.2106 16.5294 58.3829 14.285 56.941 12.6714C55.5388 11.1026 53.5924 10.1701 50.8156 9.73755C46.5365 9.07013 38.7545 8.67188 29.9993 8.67188C26.9835 8.67188 24.0456 8.71994 21.2665 8.81378C20.6192 8.83575 20.1125 9.37775 20.1345 10.0246C20.1565 10.6718 20.6962 11.1795 21.3457 11.1566C24.0983 11.0632 27.0101 11.0161 29.9997 11.0161C38.6409 11.0161 46.2879 11.4038 50.4549 12.0534C54.9062 12.7478 56.6755 14.8215 57.2147 19.9786C57.8052 25.621 57.8052 34.4609 57.2147 40.1033C56.6755 45.2605 54.9062 47.3341 50.4549 48.0286C49.7321 48.1412 48.8825 48.2483 47.9299 48.3472C47.2863 48.414 46.8184 48.9899 46.8853 49.6339C46.948 50.2368 47.4566 50.685 48.0494 50.685C48.0901 50.685 48.1308 50.6827 48.172 50.6786C49.164 50.5756 50.0535 50.4634 50.8156 50.3444C53.5924 49.9113 55.5388 48.9793 56.941 47.4106C58.3829 45.797 59.2106 43.5526 59.5461 40.3473C60.1503 34.568 60.1503 25.5139 59.5461 19.7346Z" fill="#13294B"/>
<path d="M39.6589 29.0438L25.1542 20.0822C24.7926 19.8588 24.3385 19.8487 23.9673 20.0556C23.5965 20.2625 23.3662 20.6544 23.3662 21.0792V39.002C23.3662 39.4268 23.5965 39.8186 23.9673 40.0255C24.1453 40.1244 24.3417 40.1738 24.5381 40.1738C24.7523 40.1738 24.9656 40.1153 25.1542 39.999L39.6589 31.0378C40.0045 30.824 40.2151 30.4468 40.2151 30.0408C40.2151 29.6343 40.0045 29.2571 39.6589 29.0438ZM25.7104 36.9004V23.1812L36.813 30.0408L25.7104 36.9004Z" fill="#13294B"/>
<path d="M16.6225 11.3713C16.6486 11.3713 16.6751 11.3703 16.7017 11.369C17.3476 11.3259 17.836 10.7675 17.793 10.1216C17.75 9.47565 17.1906 8.9863 16.5456 9.02979H16.5447C15.8988 9.07282 15.4108 9.63129 15.4538 10.2772C15.495 10.8965 16.0105 11.3713 16.6225 11.3713Z" fill="#13294B"/>
<path d="M43.2995 48.7128C42.6536 48.7554 42.1647 49.3138 42.2077 49.9597C42.2489 50.5791 42.7644 51.0538 43.3759 51.0538C43.4025 51.0538 43.4286 51.0529 43.4551 51.0515H43.456C44.1019 51.0085 44.5899 50.45 44.5469 49.8041C44.5039 49.1582 43.9463 48.6702 43.2995 48.7128Z" fill="#13294B"/>
</svg>
