<svg width="58" height="60" viewBox="0 0 58 60" fill="none" xmlns="http://www.w3.org/2000/svg">
<path d="M54.3125 2.34375H46.1094V1.17188C46.1094 0.524648 45.5846 0 44.9375 0H13.0625C12.4154 0 11.8906 0.524648 11.8906 1.17188V2.34375H3.6875C1.74898 2.34375 0.171875 3.92086 0.171875 5.85938V18.1727C0.171875 26.6329 7.05465 33.5156 15.5148 33.5156H17.7625C19.2072 34.7767 20.865 35.7993 22.674 36.5217C22.6735 36.5353 22.6719 36.5487 22.6719 36.5625V43.5938H18.2188C16.2802 43.5938 14.7031 45.1709 14.7031 47.1094V56.4844C14.7031 58.4229 16.2802 60 18.2188 60H39.7812C41.7198 60 43.2969 58.4229 43.2969 56.4844V47.1094C43.2969 45.1709 41.7198 43.5938 39.7812 43.5938H35.3281V36.5625C35.3281 36.5487 35.3265 36.5353 35.326 36.5217C37.135 35.7993 38.7928 34.7767 40.2375 33.5156H42.4852C50.9454 33.5156 57.8281 26.6329 57.8281 18.1727V5.85938C57.8281 3.92086 56.251 2.34375 54.3125 2.34375ZM46.1094 9.375H50.7969V18.1727C50.7969 21.7261 48.4951 24.8587 45.2398 26.0115C45.8034 24.3171 46.1094 22.5062 46.1094 20.625V9.375ZM14.2344 2.34375H43.7656V4.6875H35.8024C35.1553 4.6875 34.6305 5.21215 34.6305 5.85938C34.6305 6.5066 35.1553 7.03125 35.8024 7.03125H43.7656V20.625C43.7656 28.7668 37.1418 35.3906 29 35.3906C20.8582 35.3906 14.2344 28.7668 14.2344 20.625V2.34375ZM12.7602 26.0115C9.50492 24.8587 7.20312 21.7261 7.20312 18.1727V9.375H11.8906V20.625C11.8906 22.5062 12.1966 24.3171 12.7602 26.0115ZM2.51562 18.1727V5.85938C2.51562 5.2132 3.04133 4.6875 3.6875 4.6875H11.8906V7.03125H6.03125C5.38414 7.03125 4.85938 7.5559 4.85938 8.20312V18.1727C4.85938 20.7415 5.78984 23.2242 7.47934 25.1634C9.14504 27.0752 11.4329 28.3328 13.9237 28.7077C14.3914 29.5765 14.9315 30.4009 15.5369 31.1719H15.5148C8.34699 31.1719 2.51562 25.3405 2.51562 18.1727ZM40.9531 47.1094V56.4844C40.9531 57.1305 40.4274 57.6562 39.7812 57.6562H18.2188C17.5726 57.6562 17.0469 57.1305 17.0469 56.4844V47.1094C17.0469 46.4632 17.5726 45.9375 18.2188 45.9375H39.7812C40.4274 45.9375 40.9531 46.4632 40.9531 47.1094ZM32.9844 43.5938H25.0156V37.2649C26.2946 37.5711 27.6284 37.7344 29 37.7344C30.3716 37.7344 31.7054 37.5711 32.9844 37.2649V43.5938ZM55.4844 18.1727C55.4844 25.3405 49.653 31.1719 42.4852 31.1719H42.4631C43.0685 30.4009 43.6085 29.5766 44.0763 28.7077C46.5671 28.3329 48.855 27.0754 50.5207 25.1634C52.2102 23.2242 53.1406 20.7416 53.1406 18.1727V8.20312C53.1406 7.5559 52.6159 7.03125 51.9688 7.03125H46.1094V4.6875H54.3125C54.9587 4.6875 55.4844 5.2132 55.4844 5.85938V18.1727Z" fill="#13294B"/>
<path d="M31.1152 7.03125C31.4234 7.03125 31.7258 6.90586 31.9438 6.68789C32.1616 6.46992 32.2871 6.16758 32.2871 5.85938C32.2871 5.55117 32.1617 5.24883 31.9438 5.03086C31.7258 4.81289 31.4234 4.6875 31.1152 4.6875C30.8059 4.6875 30.5047 4.81289 30.2867 5.03086C30.0676 5.24883 29.9434 5.55117 29.9434 5.85938C29.9434 6.16758 30.0676 6.46992 30.2867 6.68789C30.5047 6.90586 30.8059 7.03125 31.1152 7.03125Z" fill="#13294B"/>
<path d="M32.3202 52.9688H25.6797C25.0326 52.9688 24.5078 53.4935 24.5078 54.1406C24.5078 54.7877 25.0326 55.3125 25.6797 55.3125H32.3202C32.9673 55.3125 33.4921 54.7877 33.4921 54.1406C33.4921 53.4935 32.9673 52.9688 32.3202 52.9688Z" fill="#13294B"/>
<path d="M23.1992 48.2812C22.891 48.2812 22.5887 48.4065 22.3707 48.6246C22.1527 48.8427 22.0273 49.1449 22.0273 49.4531C22.0273 49.7613 22.1526 50.0637 22.3707 50.2815C22.5887 50.4995 22.891 50.625 23.1992 50.625C23.5074 50.625 23.8098 50.4996 24.0276 50.2815C24.2456 50.0637 24.3711 49.7613 24.3711 49.4531C24.3711 49.1449 24.2457 48.8426 24.0276 48.6246C23.8098 48.4065 23.5074 48.2812 23.1992 48.2812Z" fill="#13294B"/>
<path d="M26.7148 49.4531C26.7148 50.1002 27.2396 50.625 27.8867 50.625H34.8008C35.4479 50.625 35.9727 50.1002 35.9727 49.4531C35.9727 48.806 35.4479 48.2812 34.8008 48.2812H27.8867C27.2396 48.2812 26.7148 48.806 26.7148 49.4531Z" fill="#13294B"/>
<path d="M23.9702 20.4836L23.1857 25.0657C23.1103 25.5054 23.2911 25.9497 23.6521 26.2118C23.8562 26.3601 24.0979 26.4354 24.3408 26.4354C24.5275 26.4354 24.7147 26.3909 24.8862 26.3007L29.0005 24.1363L33.1159 26.2986C33.5108 26.5061 33.9892 26.4714 34.35 26.209C34.7108 25.9468 34.8914 25.5024 34.8159 25.0628L34.0289 20.481L37.3569 17.2352C37.6763 16.9238 37.791 16.458 37.6531 16.0339C37.515 15.6096 37.1482 15.3006 36.7069 15.2365L32.1061 14.5693L30.0476 10.401C29.8501 10.0012 29.4429 9.74805 28.9969 9.74805H28.9965C28.5504 9.74816 28.1432 10.0015 27.9458 10.4016L25.8895 14.571L21.2892 15.2407C20.8478 15.305 20.4811 15.6143 20.3434 16.0386C20.2057 16.4629 20.3208 16.9285 20.6402 17.2397L23.9702 20.4836ZM26.8371 16.8013C27.2188 16.7458 27.5487 16.5059 27.7193 16.1601L28.9977 13.5678L30.2777 16.1594C30.4485 16.5052 30.7785 16.7448 31.1602 16.8002L34.0207 17.2151L31.9514 19.2332C31.6754 19.5025 31.5493 19.8904 31.6147 20.2705L32.1041 23.1194L29.5453 21.775C29.204 21.5956 28.796 21.5958 28.4547 21.7752L25.8965 23.1209L26.3843 20.272C26.4495 19.8918 26.3232 19.5039 26.047 19.2347L23.9767 17.2177L26.8371 16.8013Z" fill="#13294B"/>
</svg>
