<svg width="60" height="60" viewBox="0 0 60 60" fill="none" xmlns="http://www.w3.org/2000/svg">
<g clip-path="url(#clip0)">
<path d="M59.8843 32.7716C59.3456 27.353 56.9248 22.2446 53.0677 18.3873C49.7714 15.0911 45.7368 12.9729 41.4915 12.031V9.0535C43.2254 8.62213 44.5142 7.05261 44.5142 5.18707C44.5142 2.99001 42.7269 1.20264 40.5298 1.20264H32.0922C29.8951 1.20264 28.1077 2.99001 28.1077 5.18707C28.1077 7.05249 29.3966 8.62201 31.1304 9.0535V12.0394C26.8981 12.9852 22.8769 15.1005 19.59 18.3874C18.8706 19.1067 18.2074 19.8613 17.6002 20.6455C17.5708 20.6433 17.5414 20.6411 17.5114 20.6411H9.16034C8.51322 20.6411 7.98844 21.1657 7.98844 21.813C7.98844 22.4602 8.51322 22.9848 9.16034 22.9848H16.0056C15.1464 24.4233 14.4535 25.934 13.9262 27.4891H1.17189C0.524774 27.4891 0 28.0138 0 28.661C0 29.3083 0.524774 29.8329 1.17189 29.8329H13.264C12.9262 31.3155 12.7324 32.8243 12.6823 34.3373H7.50012C6.853 34.3373 6.32822 34.862 6.32822 35.5092C6.32822 36.1565 6.853 36.6811 7.50012 36.6811H12.7197C12.8186 38.198 13.0625 39.7069 13.4515 41.1855H5.85947C5.21235 41.1855 4.68757 41.7102 4.68757 42.3574C4.68757 43.0047 5.21235 43.5293 5.85947 43.5293H14.1994C15.349 46.5705 17.1456 49.4209 19.59 51.8652C23.4509 55.7261 28.5645 58.1475 33.9888 58.6834C34.7629 58.7598 35.5377 58.7977 36.3113 58.7977C40.8843 58.7977 45.3991 57.4743 49.2301 54.9795C49.7724 54.6263 49.9258 53.9003 49.5726 53.358C49.2194 52.8156 48.4934 52.6622 47.9511 53.0154C39.5653 58.4761 28.3347 57.2954 21.2472 50.2079C12.9313 41.8919 12.9313 28.3609 21.2472 20.0448C29.5631 11.7289 43.0941 11.7289 51.4103 20.0448C58.4884 27.123 59.6755 38.344 54.2329 46.7256C53.8804 47.2685 54.0347 47.9943 54.5774 48.3467C55.1205 48.6992 55.8461 48.5449 56.1985 48.0021C59.1064 43.5237 60.4154 38.1148 59.8843 32.7716ZM30.4515 5.18719C30.4515 4.28249 31.1875 3.54654 32.0922 3.54654H40.5298C41.4345 3.54654 42.1705 4.28249 42.1705 5.18719C42.1705 6.09189 41.4345 6.82784 40.5298 6.82784H40.3196H32.3023H32.0922C31.1875 6.82784 30.4515 6.09177 30.4515 5.18719ZM33.4742 11.6365V9.17163H39.1477V11.6323C37.2637 11.4082 35.3578 11.4096 33.4742 11.6365Z" fill="#13294B"/>
<path d="M52.2402 49.864C51.9309 49.864 51.6297 49.9894 51.4118 50.2074C51.1927 50.4253 51.0684 50.7277 51.0684 51.0359C51.0684 51.3441 51.1927 51.6464 51.4118 51.8644C51.6297 52.0835 51.931 52.2078 52.2402 52.2078C52.5484 52.2078 52.8496 52.0835 53.0688 51.8644C53.2867 51.6464 53.4121 51.3441 53.4121 51.0359C53.4121 50.7277 53.2868 50.4253 53.0688 50.2074C52.8496 49.9894 52.5483 49.864 52.2402 49.864Z" fill="#13294B"/>
<path d="M36.3289 16.9468C26.3047 16.9468 18.1494 25.102 18.1494 35.1262C18.1494 45.1505 26.3047 53.3057 36.3289 53.3057C46.353 53.3057 54.5083 45.1505 54.5083 35.1262C54.5083 25.102 46.353 16.9468 36.3289 16.9468ZM36.3289 50.9619C27.597 50.9619 20.4932 43.858 20.4932 35.1262C20.4932 26.3945 27.597 19.2906 36.3289 19.2906C45.0608 19.2906 52.1646 26.3945 52.1646 35.1262C52.1646 43.858 45.0608 50.9619 36.3289 50.9619Z" fill="#13294B"/>
<path d="M43.7419 26.0559L37.9375 31.8601C37.4521 31.6201 36.9061 31.4845 36.329 31.4845C35.7517 31.4845 35.2058 31.6201 34.7204 31.8601L32.1227 29.2624C31.665 28.8048 30.9231 28.8048 30.4653 29.2624C30.0077 29.72 30.0077 30.4621 30.4653 30.9197L33.063 33.5174C32.8229 34.0028 32.6874 34.5488 32.6874 35.126C32.6874 37.1339 34.3209 38.7675 36.329 38.7675C38.337 38.7675 39.9705 37.1339 39.9705 35.126C39.9705 34.5488 39.8349 34.0028 39.5949 33.5174L45.2289 27.8834L45.3992 27.7132C45.8568 27.2555 45.8568 26.5135 45.3992 26.0559C44.9416 25.5982 44.1997 25.5982 43.7419 26.0559ZM36.329 36.4238C35.6134 36.4238 35.0312 35.8416 35.0312 35.1261C35.0312 34.4105 35.6134 33.8283 36.329 33.8283C37.0445 33.8283 37.6267 34.4105 37.6267 35.1261C37.6267 35.8416 37.0445 36.4238 36.329 36.4238Z" fill="#13294B"/>
<path d="M48.8582 33.9685H47.7725C47.1254 33.9685 46.6006 34.4932 46.6006 35.1404C46.6006 35.7876 47.1254 36.3123 47.7725 36.3123H48.8582C49.5053 36.3123 50.0301 35.7876 50.0301 35.1404C50.0301 34.4932 49.5053 33.9685 48.8582 33.9685Z" fill="#13294B"/>
<path d="M24.8845 33.9399H23.7988C23.1517 33.9399 22.627 34.4646 22.627 35.1118C22.627 35.759 23.1517 36.2837 23.7988 36.2837H24.8845C25.5316 36.2837 26.0563 35.759 26.0563 35.1118C26.0563 34.4646 25.5316 33.9399 24.8845 33.9399Z" fill="#13294B"/>
<path d="M36.3428 24.8539C36.9899 24.8539 37.5146 24.3293 37.5146 23.6821V22.5964C37.5146 21.9492 36.9899 21.4246 36.3428 21.4246C35.6957 21.4246 35.1709 21.9492 35.1709 22.5964V23.6821C35.1709 24.3293 35.6957 24.8539 36.3428 24.8539Z" fill="#13294B"/>
<path d="M36.3145 45.3984C35.6673 45.3984 35.1426 45.9231 35.1426 46.5703V47.6559C35.1426 48.3032 35.6673 48.8278 36.3145 48.8278C36.9616 48.8278 37.4863 48.3032 37.4863 47.6559V46.5703C37.4863 45.9231 36.9616 45.3984 36.3145 45.3984Z" fill="#13294B"/>
<path d="M1.17188 41.1851C0.863672 41.1851 0.561328 41.3104 0.343359 41.5284C0.125391 41.7464 0 42.0487 0 42.3569C0 42.6663 0.125273 42.9675 0.343359 43.1855C0.561445 43.4034 0.863672 43.5288 1.17188 43.5288C1.48008 43.5288 1.78242 43.4034 2.00027 43.1855C2.21824 42.9675 2.34375 42.6651 2.34375 42.3569C2.34375 42.0487 2.21836 41.7464 2.00027 41.5284C1.78242 41.3104 1.48008 41.1851 1.17188 41.1851Z" fill="#13294B"/>
</g>
<defs>
<clipPath id="clip0">
<rect width="60" height="60" fill="white"/>
</clipPath>
</defs>
</svg>
