<svg width="60" height="60" viewBox="0 0 60 60" fill="none" xmlns="http://www.w3.org/2000/svg">
<g clip-path="url(#clip0)">
<path d="M27.632 40.6952C28.0893 40.237 28.0893 39.4954 27.632 39.0372C27.1743 38.5804 26.4327 38.5804 25.9745 39.0372C25.5176 39.4954 25.5176 40.237 25.9745 40.6952C26.4327 41.1521 27.1743 41.1521 27.632 40.6952Z" fill="#13294B"/>
<path d="M22.084 12.887C22.084 19.9928 27.8651 25.7744 34.971 25.7744C42.0768 25.7744 47.8579 19.9928 47.8579 12.887C47.8579 5.7811 42.0768 0 34.971 0C27.8651 0 22.084 5.7811 22.084 12.887ZM45.5151 12.887C45.5151 18.701 40.785 23.4311 34.971 23.4311C29.1569 23.4311 24.4268 18.701 24.4268 12.887C24.4268 7.07337 29.1569 2.34329 34.971 2.34329C40.785 2.34329 45.5151 7.07337 45.5151 12.887Z" fill="#13294B"/>
<path d="M13.5529 59.6534C14.007 60.1112 14.7463 60.1162 15.2063 59.663L20.8863 54.0673C21.8512 53.1024 22.1447 51.6737 21.7203 50.4318L22.9421 49.2535C23.5999 48.6181 24.466 48.2679 25.3815 48.2679H40.956C43.7191 48.2679 46.3306 47.2068 48.3105 45.2801C48.3919 45.2009 47.692 46.0253 58.9356 32.5872C60.6032 30.6143 60.3538 27.6516 58.379 25.9821C56.4165 24.3282 53.4768 24.5658 51.8046 26.5049L44.8914 33.6103C44.0185 32.536 42.6873 31.8662 41.249 31.8662H28.1849C26.3259 31.0885 24.3534 30.6948 22.3182 30.6948C16.6767 30.6948 11.7507 33.3004 9.1071 38.1857C7.99336 37.9746 6.81874 38.3116 5.9737 39.1566L0.40043 44.7463C-0.0545876 45.2027 -0.0555031 45.9411 0.398599 46.3989L13.5529 59.6534ZM22.3177 33.0377C24.1121 33.0377 25.8471 33.3988 27.4753 34.1111C27.6236 34.1761 27.7834 34.2095 27.945 34.2095H41.249C42.5193 34.2095 43.5923 35.2455 43.5923 36.5524C43.5923 37.8446 42.5413 38.8957 41.249 38.8957H31.6904C31.0436 38.8957 30.519 39.4203 30.519 40.0671C30.519 40.7144 31.0436 41.2385 31.6904 41.2385H41.249C43.8331 41.2385 45.9351 39.1364 45.9351 36.5524C45.9351 36.3464 45.9205 36.1422 45.8939 35.9399C52.5814 29.0656 53.5244 28.0998 53.5647 28.0517C54.3996 27.0661 55.8819 26.9412 56.8679 27.7725C57.8548 28.607 57.9798 30.0883 57.1426 31.0793L46.6346 43.6413C45.1002 45.1144 43.0855 45.9251 40.956 45.9251H25.3815C23.8553 45.9251 22.4106 46.5087 21.3147 47.5675L20.3191 48.5284L11.1409 39.3507C13.286 35.3265 17.3111 33.0377 22.3177 33.0377ZM7.63173 40.8123C8.01808 40.426 8.61134 40.3564 9.08238 40.6475C9.28517 40.7711 8.70289 40.241 19.2296 50.7531C19.6979 51.2214 19.6727 51.9676 19.236 52.4043L14.3938 57.1746L2.88243 45.5754L7.63173 40.8123Z" fill="#13294B"/>
<path d="M33.5647 5.85791V7.23074C32.201 7.71414 31.2214 9.01648 31.2214 10.544C31.2214 12.4818 32.7979 14.0588 34.7361 14.0588C35.382 14.0588 35.9075 14.5843 35.9075 15.2302C35.9075 15.8761 35.382 16.4016 34.7361 16.4016C34.2358 16.4016 33.6951 16.0871 33.2149 15.5154C32.7984 15.0201 32.0595 14.9564 31.5642 15.3725C31.0689 15.7891 31.0049 16.5279 31.4214 17.0232C32.0476 17.768 32.7842 18.2871 33.5647 18.549V19.9163C33.5647 20.5636 34.0893 21.0877 34.7361 21.0877C35.3829 21.0877 35.9075 20.5636 35.9075 19.9163V18.5435C37.2712 18.0596 38.2508 16.7573 38.2508 15.2302C38.2508 13.292 36.6743 11.7155 34.7361 11.7155C34.0902 11.7155 33.5647 11.1899 33.5647 10.544C33.5647 9.89813 34.0902 9.37216 34.7361 9.37216C35.1513 9.37216 35.5894 9.58411 36.0032 9.98465C36.4683 10.4346 37.2098 10.4223 37.6598 9.95764C38.1098 9.49256 38.0974 8.75098 37.6328 8.301C37.0382 7.72559 36.4431 7.40012 35.9075 7.2225V5.85791C35.9075 5.21063 35.3829 4.68604 34.7361 4.68604C34.0893 4.68604 33.5647 5.21063 33.5647 5.85791Z" fill="#13294B"/>
</g>
<defs>
<clipPath id="clip0">
<rect width="59.8828" height="60" fill="white"/>
</clipPath>
</defs>
</svg>
