<svg width="60" height="60" viewBox="0 0 60 60" fill="none" xmlns="http://www.w3.org/2000/svg">
<path d="M39.2514 20.6929C38.2427 20.031 37.5321 18.9844 37.2886 17.8112V9.96024C37.2886 9.31301 36.764 8.78836 36.1168 8.78836C35.4064 8.78836 34.8284 8.21039 34.8284 7.5C34.8284 6.85277 34.3038 6.32813 33.6565 6.32813H31.1574V1.17188C31.1574 0.524648 30.6327 0 29.9855 0C29.3383 0 28.8136 0.524648 28.8136 1.17188V6.32813H26.3707C25.7235 6.32813 25.1989 6.85277 25.1989 7.5C25.1989 8.21039 24.6209 8.78836 23.9105 8.78836C23.2633 8.78836 22.7386 9.31301 22.7386 9.96024V17.8119C22.4951 18.988 21.7964 20.0266 20.8084 20.6716C16.0163 23.8004 13.1553 29.0805 13.1553 34.7958C13.1553 39.2997 14.9093 43.5336 18.0945 46.7179C21.2786 49.9011 25.5109 51.6539 30.0134 51.6539C30.0148 51.6539 30.0168 51.6539 30.0182 51.6539C34.5265 51.6527 38.7607 49.9 41.941 46.7186C45.1212 43.5373 46.8723 39.3022 46.8719 34.7939C46.8714 29.0951 44.0226 23.8236 39.2514 20.6929ZM25.0826 10.9382C26.1443 10.5752 26.986 9.73359 27.3489 8.67188H32.6787C33.0416 9.73359 33.8833 10.5752 34.945 10.9382V12.1875H30.0005C29.3533 12.1875 28.8286 12.7121 28.8286 13.3594C28.8286 14.0066 29.3533 14.5313 30.0005 14.5313H34.9449V16.7606H25.0825V10.9382H25.0826ZM30.0177 49.3102C30.0163 49.3102 30.015 49.3102 30.0136 49.3102C26.1374 49.3102 22.4931 47.8009 19.7518 45.0602C17.0095 42.3186 15.4993 38.6734 15.4993 34.7957C15.4993 29.8748 17.963 25.3284 22.09 22.6339C23.3616 21.8038 24.3198 20.5518 24.8118 19.1043H26.1645V28.7113H25.4223C23.7208 28.7113 22.3364 30.0956 22.3364 31.7972V31.9534C22.3364 33.6551 23.7208 35.0393 25.4223 35.0393C27.124 35.0393 28.5082 33.655 28.5082 31.9534V31.055H31.3207V31.9534C31.3207 33.6551 32.7051 35.0393 34.4066 35.0393H34.6052C36.3067 35.0393 37.6911 33.655 37.6911 31.9534V31.7972C37.6911 30.0955 36.3067 28.7113 34.6052 28.7113H33.6645V27.3074C33.6645 26.6602 33.1398 26.1355 32.4926 26.1355C31.8454 26.1355 31.3207 26.6602 31.3207 27.3074V28.7113H28.5082V19.1043H35.2159C35.7088 20.5463 36.6773 21.807 37.9655 22.6522C42.0745 25.3484 44.5278 29.8874 44.5282 34.7939C44.5291 42.7962 38.0196 49.3082 30.0177 49.3102ZM26.1645 31.0553V31.9536C26.1645 32.3629 25.8316 32.6958 25.4223 32.6958C25.0131 32.6958 24.6802 32.3629 24.6802 31.9536V31.7974C24.6802 31.3882 25.0131 31.0553 25.4223 31.0553H26.1645ZM33.6645 31.9536V31.0553H34.6052C35.0144 31.0553 35.3473 31.3882 35.3473 31.7974V31.9536C35.3473 32.3629 35.0144 32.6958 34.6052 32.6958H34.4066C33.9974 32.6958 33.6645 32.3629 33.6645 31.9536Z" fill="#13294B"/>
<path d="M30.0127 53.4834C29.3655 53.4834 28.8408 54.0082 28.8408 54.6553V58.8282C28.8408 59.4753 29.3655 60.0001 30.0127 60.0001C30.6599 60.0001 31.1846 59.4753 31.1846 58.8282V54.6553C31.1846 54.008 30.6599 53.4834 30.0127 53.4834Z" fill="#13294B"/>
<path d="M54.0324 33.6106H49.8594C49.2121 33.6106 48.6875 34.1354 48.6875 34.7825C48.6875 35.4296 49.2121 35.9543 49.8594 35.9543H54.0324C54.6796 35.9543 55.2043 35.4296 55.2043 34.7825C55.2043 34.1354 54.6796 33.6106 54.0324 33.6106Z" fill="#13294B"/>
<path d="M10.1408 33.637H5.96777C5.32055 33.637 4.7959 34.1617 4.7959 34.8088C4.7959 35.4559 5.32055 35.9807 5.96777 35.9807H10.1408C10.788 35.9807 11.3127 35.4559 11.3127 34.8088C11.3127 34.1617 10.788 33.637 10.1408 33.637Z" fill="#13294B"/>
<path d="M44.0333 21.9155C44.3332 21.9155 44.6332 21.8011 44.8619 21.5722L47.8127 18.6214C48.2703 18.1638 48.2703 17.4218 47.8127 16.9641C47.3551 16.5064 46.613 16.5064 46.1553 16.9641L43.2045 19.9148C42.7469 20.3725 42.7469 21.1145 43.2045 21.5722C43.4334 21.8011 43.7334 21.9155 44.0333 21.9155Z" fill="#13294B"/>
<path d="M15.1388 48.0192L12.188 50.97C11.7304 51.4276 11.7302 52.1697 12.188 52.6274C12.4169 52.8562 12.7167 52.9706 13.0166 52.9706C13.3165 52.9706 13.6165 52.8562 13.8453 52.6274L16.796 49.6766C17.2537 49.219 17.2538 48.477 16.796 48.0192C16.3384 47.5616 15.5964 47.5616 15.1388 48.0192Z" fill="#13294B"/>
<path d="M44.8805 48.0004C44.4229 47.5429 43.6808 47.5429 43.2231 48.0004C42.7655 48.458 42.7655 49.2 43.2231 49.6577L46.1739 52.6085C46.4028 52.8373 46.7026 52.9517 47.0025 52.9517C47.3024 52.9517 47.6024 52.8373 47.8312 52.6085C48.2888 52.1509 48.2888 51.4089 47.8312 50.9511L44.8805 48.0004Z" fill="#13294B"/>
<path d="M15.1194 21.591C15.3482 21.8199 15.6481 21.9343 15.948 21.9343C16.2479 21.9343 16.5479 21.8199 16.7766 21.591C17.2342 21.1334 17.2342 20.3914 16.7766 19.9336L13.8258 16.9829C13.3682 16.5252 12.6262 16.5252 12.1685 16.9829C11.7107 17.4405 11.7108 18.1825 12.1685 18.6402L15.1194 21.591Z" fill="#13294B"/>
<path d="M40.2193 33.6221C39.5721 33.6222 39.0474 34.147 39.0475 34.7941C39.0479 38.2443 37.133 41.3436 34.0502 42.8821C33.471 43.1711 33.236 43.8748 33.525 44.4539C33.7301 44.865 34.1442 45.1027 34.5745 45.1027C34.7503 45.1027 34.9289 45.063 35.0969 44.9791C38.9799 43.0413 41.3919 39.1384 41.3914 34.7938C41.3912 34.1467 40.8664 33.622 40.2193 33.6221Z" fill="#13294B"/>
<path d="M32.4922 21.4478C32.184 21.4478 31.8816 21.5731 31.6637 21.7911C31.4457 22.0091 31.3203 22.3114 31.3203 22.6196C31.3203 22.929 31.4457 23.2302 31.6637 23.4493C31.8816 23.6673 32.184 23.7915 32.4922 23.7915C32.8016 23.7915 33.1027 23.6673 33.3207 23.4493C33.5398 23.2302 33.6641 22.929 33.6641 22.6196C33.6641 22.3114 33.5398 22.0091 33.3207 21.7911C33.1027 21.5731 32.8016 21.4478 32.4922 21.4478Z" fill="#13294B"/>
<path d="M30.0176 43.8281C29.7082 43.8281 29.407 43.9534 29.1891 44.1715C28.9699 44.3895 28.8457 44.6918 28.8457 45C28.8457 45.3082 28.9699 45.6105 29.1891 45.8284C29.407 46.0464 29.7082 46.1719 30.0176 46.1719C30.3258 46.1719 30.6281 46.0465 30.8461 45.8284C31.0641 45.6105 31.1895 45.3082 31.1895 45C31.1895 44.6918 31.0641 44.3895 30.8461 44.1715C30.6281 43.9534 30.3258 43.8281 30.0176 43.8281Z" fill="#13294B"/>
</svg>
