<svg width="60" height="60" viewBox="0 0 60 60" fill="none" xmlns="http://www.w3.org/2000/svg">
<g clip-path="url(#clip0)">
<path d="M58.0854 13.4563C57.8898 13.012 57.371 12.8104 56.9268 13.0063C56.4825 13.2019 56.281 13.7207 56.4767 14.165C57.1608 15.7179 57.6442 17.3151 57.9348 18.9258C52.7035 20.4113 47.7392 23.3166 43.4945 27.3741L38.6781 22.5577L52.7528 8.48299C53.5072 9.3031 54.1964 10.1806 54.8057 11.1024C55.0734 11.5074 55.6186 11.6187 56.0237 11.3509C56.4287 11.0833 56.5399 10.5378 56.2722 10.1329C55.4377 8.87055 54.4675 7.68339 53.3885 6.60428C44.5918 -2.19243 30.2786 -2.19219 21.4817 6.60428C18.1669 9.91918 15.9956 14.1051 15.2026 18.7094C15.1203 19.1878 15.4413 19.6424 15.9197 19.7248C15.9702 19.7335 16.0202 19.7376 16.0698 19.7376C16.4897 19.7376 16.8613 19.4356 16.935 19.0077C17.6163 15.0517 19.4022 11.4309 22.1166 8.48205L30.1321 16.4976C28.0139 18.5181 25.712 20.2347 23.2874 21.6135C21.1316 21.1686 18.907 21.0961 16.6896 21.4093C12.8273 21.9545 9.26218 23.6197 6.37971 26.2246C6.01958 26.5501 5.99145 27.1061 6.3169 27.4661C6.64234 27.8263 7.1983 27.8544 7.55832 27.5289C7.86255 27.254 8.17616 26.993 8.49609 26.7424L14.4952 28.4364L16.0596 33.2513L11.1669 39.9855L6.47569 38.6171L4.24036 31.5881C4.4853 31.176 4.74464 30.7735 5.01969 30.386C5.3006 29.9903 5.20755 29.4415 4.81168 29.1606C4.4158 28.8798 3.8671 28.9727 3.58619 29.3686C3.03937 30.1389 2.54306 30.9595 2.11086 31.8076C-2.74209 41.3319 1.05847 53.0288 10.5828 57.8817C13.3942 59.3142 16.3943 59.9927 19.3522 59.9926C26.4155 59.9924 33.2366 56.1228 36.6571 49.4098C38.7292 45.3431 39.2225 40.8807 38.3674 36.7238C39.7487 34.2912 41.4706 31.9828 43.4951 29.8604L51.5107 37.876C48.5127 40.6362 44.8261 42.4332 40.7955 43.0894C40.3165 43.1673 39.9912 43.6191 40.0693 44.098C40.1395 44.5294 40.5124 44.8359 40.9358 44.8359C40.9827 44.8359 41.0303 44.8321 41.0781 44.8243C45.7639 44.0615 50.0209 41.8782 53.3886 38.5106C56.668 35.2311 58.831 31.0928 59.6436 26.5434C60.4374 22.0983 59.8988 17.5728 58.0854 13.4563ZM37.4349 21.3145L32.6185 16.4981C36.6724 12.2575 39.5726 7.30357 41.0595 2.08053C44.8524 2.74642 48.4942 4.46622 51.5095 7.23993L37.4349 21.3145ZM39.2979 1.84778C37.8719 6.69323 35.1528 11.2948 31.3751 15.2547L23.3603 7.23993C27.8165 3.14112 33.641 1.34362 39.2979 1.84778ZM31.3755 17.7413L36.1919 22.5577L32.4567 26.2929C31.2005 25.1451 29.7728 24.145 28.1849 23.3359C27.3539 22.9124 26.5006 22.5523 25.6309 22.2548C27.6515 20.9706 29.5776 19.4598 31.3755 17.7413ZM36.8387 43.0787L30.6908 46.6084L26.8605 45.1039V36.6026L30.0455 32.4874L35.2024 32.8452C36.7382 35.9839 37.3345 39.5526 36.8387 43.0787ZM17.7272 32.6957L16.1669 27.8934L20.0131 23.0112C22.162 23.0835 24.3074 23.545 26.3337 24.4122L28.656 31.4102L25.6652 35.2747L17.7272 32.6957ZM30.2864 30.742L28.5672 25.5611C30.8813 26.9711 32.7673 28.85 34.1653 31.011L30.2864 30.742ZM17.7222 23.0785L14.8592 26.7128L10.3912 25.4511C12.6437 24.1237 15.1544 23.3226 17.7222 23.0785ZM17.3761 34.4299L25.1026 36.9404V45.0645L17.3761 47.5751L12.6009 41.0025L17.3761 34.4299ZM3.10934 33.8328L4.76374 39.0346L1.78389 41.5322C1.64466 38.9623 2.06597 36.3337 3.10934 33.8328ZM2.02273 43.6257L5.98442 40.3052L10.98 41.7624L15.977 48.6402L13.7625 52.1087L6.71418 52.8667C4.24036 50.3054 2.62521 47.0677 2.02273 43.6257ZM8.46141 54.4468L13.7353 53.8797L15.4937 57.8028C14.0958 57.4867 12.7146 56.9954 11.3807 56.3158C10.3291 55.7798 9.35488 55.1515 8.46141 54.4468ZM17.5724 58.1425L15.2723 53.0108L17.6116 49.3469L25.9537 46.6363L29.9998 48.2256L31.1552 53.7287C27.9066 56.6368 23.6819 58.2354 19.355 58.2352C18.7618 58.2351 18.1669 58.2032 17.5724 58.1425ZM32.6376 52.2348L31.7539 48.0252L36.3539 45.384C36.0454 46.4793 35.6265 47.5603 35.0906 48.6118C34.4107 49.9464 33.5829 51.1572 32.6376 52.2348ZM37.7293 34.3754C36.8772 31.8668 35.5154 29.5303 33.6989 27.5367L37.4349 23.8008L42.2514 28.6173C40.53 30.4183 39.0157 32.3491 37.7293 34.3754ZM52.7536 36.6332L44.7378 28.6174C48.7042 24.8338 53.319 22.1103 58.1758 20.6861C58.7116 26.4413 56.8167 32.2228 52.7536 36.6332Z" fill="#13294B"/>
</g>
<defs>
<clipPath id="clip0">
<rect width="60" height="60" fill="white"/>
</clipPath>
</defs>
</svg>
