<svg width="60" height="60" viewBox="0 0 60 60" fill="none" xmlns="http://www.w3.org/2000/svg">
<g clip-path="url(#clip0)">
<path d="M59.2692 29.8526C60.4692 27.9023 60.168 25.4181 58.5368 23.8112L56.1977 21.5069C55.6671 20.9842 55.3929 20.2581 55.4459 19.515L55.6802 16.224C55.8437 13.9294 54.4194 11.863 52.217 11.199L49.1196 10.2653C48.4016 10.0487 47.8188 9.53002 47.5207 8.84201L46.2242 5.85115C45.318 3.76006 43.0363 2.56111 40.8005 2.99986L37.6578 3.61662C36.9183 3.76182 36.1575 3.5735 35.571 3.09994L33.0692 1.0801C31.2908 -0.355801 28.7092 -0.355801 26.9307 1.0801L24.429 3.09994C23.8424 3.5735 23.0816 3.76158 22.3421 3.61662L19.1992 2.99975C16.9635 2.56088 14.6822 3.75982 13.7755 5.85057L12.4783 8.84225C12.1802 9.53014 11.5973 10.0488 10.8796 10.2653L7.78276 11.1989C5.58034 11.8629 4.15616 13.9291 4.31964 16.2238L4.55401 19.515C4.60698 20.2581 4.33276 20.984 3.80214 21.5069L1.46296 23.8112C-0.168059 25.4181 -0.46923 27.9023 0.73077 29.8524L2.46034 32.6631C2.85011 33.2966 2.94304 34.066 2.71546 34.774L1.70354 37.9209C1.00147 40.1044 1.88846 42.4469 3.86061 43.6179L6.66386 45.2822C7.30628 45.6636 7.74679 46.3047 7.87229 47.0413L8.42401 50.2776C8.8119 52.5528 10.6929 54.2218 12.998 54.3364L16.2089 54.496C16.9599 54.5333 17.6518 54.898 18.1069 55.4968L20.0646 58.0726C21.0084 59.3144 22.4762 59.9966 23.9712 59.9966C24.6653 59.9966 25.3656 59.8495 26.0217 59.5434L28.9241 58.188C29.6079 57.8688 30.3922 57.8688 31.0758 58.188L33.978 59.5434C36.0478 60.5097 38.5533 59.8913 39.9355 58.0725L41.8925 55.4973C42.3477 54.8983 43.0396 54.5335 43.7908 54.4963L47.0023 54.3367C49.3074 54.222 51.1883 52.5531 51.5762 50.2778L52.1278 47.0415C52.2533 46.3051 52.6938 45.6638 53.3362 45.2825L56.1395 43.6182C58.1117 42.4473 58.9986 40.1046 58.2966 37.9213L57.2846 34.7742C57.0569 34.066 57.1499 33.2967 57.5398 32.6633L59.2692 29.8526ZM55.5438 31.4348C54.7949 32.6522 54.6163 34.1305 55.0537 35.491L56.0657 38.6381C56.4309 39.7744 55.9693 40.9935 54.9431 41.6028L52.1399 43.2671C50.9053 44.0001 50.0589 45.2321 49.8177 46.6473L49.2661 49.8835C49.0642 51.0676 48.0854 51.9363 46.8858 51.9957L43.6744 52.1553C42.2307 52.2271 40.9012 52.9282 40.0267 54.0791L38.0696 56.6543C37.3503 57.6007 36.0464 57.9225 34.9693 57.4197L32.0671 56.0644C30.7533 55.4509 29.2462 55.4509 27.9324 56.0644L25.0301 57.4197C23.953 57.9225 22.6492 57.6009 21.9299 56.6545L19.9721 54.0787C19.0976 52.9281 17.7682 52.2271 16.3248 52.1553L13.1139 51.9957C11.9143 51.9362 10.9356 51.0676 10.7337 49.8837L10.1821 46.6474C9.94077 45.2321 9.09444 44.0001 7.85987 43.2673L5.05663 41.6029C4.0303 40.9937 3.56858 39.7745 3.93409 38.6382L4.946 35.4912C5.38335 34.1306 5.20487 32.6523 4.45581 31.4349L2.72624 28.6242C2.10175 27.6094 2.25854 26.3165 3.10733 25.4803L5.44651 23.176C6.46639 22.1714 6.99292 20.7763 6.89132 19.3483L6.65694 16.0571C6.57186 14.8631 7.31296 13.7878 8.45917 13.4422L11.556 12.5086C12.9354 12.0928 14.0552 11.096 14.6283 9.77435L15.9254 6.78279C16.3319 5.84529 17.2694 5.25232 18.2655 5.25232C18.4255 5.25232 18.5869 5.26768 18.7478 5.29932L21.8907 5.91619C23.3122 6.19498 24.7739 5.83311 25.9009 4.92326L28.4024 2.90307C29.3279 2.15576 30.6714 2.15576 31.5969 2.90307L34.0986 4.92279C35.2257 5.83287 36.6875 6.19463 38.1089 5.91572L41.2515 5.29896C42.4154 5.07033 43.6024 5.69447 44.0741 6.78268L45.3707 9.77353C45.9438 11.0955 47.0637 12.0923 48.4433 12.5082L51.5407 13.442C52.6869 13.7874 53.4281 14.8629 53.343 16.057L53.1087 19.3481C53.0069 20.7762 53.5335 22.1712 54.5535 23.1759L56.8925 25.4802C57.7414 26.3164 57.8981 27.6091 57.2736 28.6241L55.5438 31.4348Z" fill="#13294B"/>
<path d="M15.9374 14.245C15.4822 13.7852 14.7404 13.7815 14.2805 14.2367L14.2634 14.2538C13.8035 14.709 13.7998 15.4509 14.255 15.9108C14.4843 16.1422 14.7859 16.258 15.0878 16.258C15.3857 16.258 15.6836 16.145 15.9121 15.9191L15.9292 15.902C16.3889 15.4468 16.3927 14.7049 15.9374 14.245Z" fill="#13294B"/>
<path d="M51.8843 25.9089C51.0608 21.4822 48.9365 17.4534 45.7411 14.2579C38.5339 7.05088 27.3888 5.64943 18.6377 10.85C18.0814 11.1806 17.8985 11.8995 18.2291 12.4558C18.5598 13.0121 19.2786 13.1949 19.8349 12.8644C27.6638 8.21162 37.6354 9.46623 44.0842 15.9149C49.85 21.6809 51.523 30.259 48.3461 37.7684C48.094 38.3643 48.3728 39.0519 48.9686 39.3039C49.1177 39.367 49.2724 39.3967 49.4246 39.3967C49.8812 39.3967 50.3151 39.1281 50.5043 38.6813C52.211 34.6471 52.6881 30.2304 51.8843 25.9089Z" fill="#13294B"/>
<path d="M45.745 44.0873C45.2899 43.6276 44.5479 43.6237 44.0881 44.079L44.071 44.0961C43.6111 44.5512 43.6074 45.2931 44.0627 45.753C44.2919 45.9844 44.5935 46.1002 44.8954 46.1002C45.1933 46.1002 45.4913 45.9872 45.7197 45.7613L45.7368 45.7442C46.1965 45.289 46.2003 44.5471 45.745 44.0873Z" fill="#13294B"/>
<path d="M41.7713 47.5423C41.4407 46.986 40.7218 46.8032 40.1655 47.1336C37.0051 49.0119 33.4963 49.9274 30.0104 49.9273C24.8608 49.927 19.7616 47.9285 15.9162 44.0831C10.1504 38.3171 8.4774 29.739 11.6542 22.2296C11.9064 21.6338 11.6276 20.9462 11.0317 20.6941C10.436 20.4422 9.7483 20.7207 9.49623 21.3168C7.78951 25.3509 7.31244 29.7676 8.11623 34.0893C8.93971 38.516 11.064 42.5448 14.2594 45.7403C18.5572 50.0379 24.2551 52.2711 30.0107 52.2711C33.9071 52.2711 37.8302 51.2476 41.3627 49.1482C41.9188 48.8175 42.1018 48.0986 41.7713 47.5423Z" fill="#13294B"/>
<path d="M34.8422 20.4082C34.2787 20.09 33.564 20.2889 33.246 20.8525L22.384 40.0931C22.0659 40.6567 22.2647 41.3713 22.8282 41.6893C23.0103 41.7921 23.2079 41.841 23.4032 41.841C23.812 41.841 24.2093 41.6265 24.4244 41.2451L35.2864 22.0044C35.6046 21.4409 35.4057 20.7262 34.8422 20.4082Z" fill="#13294B"/>
<path d="M37.0586 32.863C34.3453 32.863 32.1377 35.0705 32.1377 37.784C32.1377 40.4973 34.3452 42.7049 37.0586 42.7049C39.772 42.7049 41.9796 40.4975 41.9796 37.784C41.9796 35.0705 39.7721 32.863 37.0586 32.863ZM37.0586 40.3615C35.6373 40.3615 34.481 39.2052 34.481 37.7839C34.481 36.3625 35.6373 35.2062 37.0586 35.2062C38.48 35.2062 39.6363 36.3625 39.6363 37.7839C39.6363 39.2052 38.48 40.3615 37.0586 40.3615Z" fill="#13294B"/>
<path d="M22.9414 17.293C20.2281 17.293 18.0205 19.5004 18.0205 22.2139C18.0205 24.9274 20.228 27.1348 22.9414 27.1348C25.6548 27.1348 27.8624 24.9274 27.8624 22.2139C27.8624 19.5004 25.6549 17.293 22.9414 17.293ZM22.9414 24.7914C21.5201 24.7914 20.3638 23.6352 20.3638 22.2138C20.3638 20.7924 21.5201 19.6361 22.9414 19.6361C24.3628 19.6361 25.5191 20.7924 25.5191 22.2138C25.5191 23.6352 24.3628 24.7914 22.9414 24.7914Z" fill="#13294B"/>
</g>
<defs>
<clipPath id="clip0">
<rect width="60" height="60" fill="white"/>
</clipPath>
</defs>
</svg>
