<svg width="60" height="60" viewBox="0 0 60 60" fill="none" xmlns="http://www.w3.org/2000/svg">
<path d="M37.7344 46.9922C42.9037 46.9922 47.1094 51.1978 47.1094 56.3672C47.1094 57.0143 47.6341 57.5391 48.2812 57.5391C48.9284 57.5391 49.4531 57.0143 49.4531 56.3672C49.4531 51.1978 53.6588 46.9922 58.8281 46.9922C59.4752 46.9922 60 46.4674 60 45.8203C60 45.1732 59.4752 44.6484 58.8281 44.6484C53.6588 44.6484 49.4531 40.4428 49.4531 35.2734C49.4531 34.6263 48.9284 34.1016 48.2812 34.1016C47.6341 34.1016 47.1094 34.6263 47.1094 35.2734C47.1094 40.4428 42.9037 44.6484 37.7344 44.6484C37.0873 44.6484 36.5625 45.1732 36.5625 45.8203C36.5625 46.4674 37.0873 46.9922 37.7344 46.9922ZM48.2812 40.3794C49.4316 42.7459 51.3555 44.6699 53.7221 45.8203C51.3557 46.9706 49.4317 48.8946 48.2812 51.2612C47.1309 48.8947 45.207 46.9707 42.8404 45.8203C45.207 44.67 47.1309 42.746 48.2812 40.3794Z" fill="#13294B"/>
<path d="M1.17188 11.8359C4.40273 11.8359 7.03125 14.4645 7.03125 17.6953C7.03125 18.3424 7.5559 18.8672 8.20312 18.8672C8.85035 18.8672 9.375 18.3424 9.375 17.6953C9.375 14.4645 12.0035 11.8359 15.2344 11.8359C15.8816 11.8359 16.4062 11.3112 16.4062 10.6641C16.4062 10.017 15.8816 9.49219 15.2344 9.49219C12.0035 9.49219 9.375 6.86367 9.375 3.63281C9.375 2.9857 8.85035 2.46094 8.20312 2.46094C7.5559 2.46094 7.03125 2.9857 7.03125 3.63281C7.03125 6.86367 4.40273 9.49219 1.17188 9.49219C0.524648 9.49219 0 10.017 0 10.6641C0 11.3112 0.524648 11.8359 1.17188 11.8359ZM8.20312 7.85438C8.89605 9.00398 9.8632 9.97125 11.0127 10.6641C9.86309 11.3569 8.89594 12.3241 8.20312 13.4738C7.5102 12.3241 6.54305 11.3569 5.39355 10.6641C6.54305 9.97125 7.5102 9.00398 8.20312 7.85438Z" fill="#13294B"/>
<path d="M32.6953 35.625C33.3425 35.625 33.8672 35.1003 33.8672 34.4531C33.8672 33.8059 33.3425 33.2812 32.6953 33.2812C32.0481 33.2812 31.5234 33.8059 31.5234 34.4531C31.5234 35.1003 32.0481 35.625 32.6953 35.625Z" fill="#13294B"/>
<path d="M35.8216 31.7805C36.1518 32.3371 36.8709 32.5206 37.4275 32.1902C40.4882 30.3741 43.9982 29.4141 47.5781 29.4141C48.2252 29.4141 48.75 28.8893 48.75 28.2422C48.75 27.5951 48.2252 27.0703 47.5781 27.0703C36.5932 27.0703 27.6562 18.1334 27.6562 7.14844C27.6562 6.50133 27.1316 5.97656 26.4844 5.97656C25.8371 5.97656 25.3125 6.50133 25.3125 7.14844C25.3125 18.1334 16.3755 27.0703 5.39062 27.0703C4.7434 27.0703 4.21875 27.5951 4.21875 28.2422C4.21875 28.8893 4.7434 29.4141 5.39062 29.4141C16.3755 29.4141 25.3125 38.351 25.3125 49.3359C25.3125 49.983 25.8371 50.5078 26.4844 50.5078C27.1316 50.5078 27.6562 49.983 27.6562 49.3359C27.6562 45.756 28.6163 42.246 30.4324 39.1853C30.7627 38.6286 30.5793 37.9097 30.0227 37.5795C29.4657 37.2489 28.747 37.4326 28.4169 37.9891C27.6243 39.3248 26.9776 40.7366 26.4836 42.1998C24.2625 35.6518 19.0726 30.4627 12.5244 28.2422C19.0733 26.0215 24.2637 20.8311 26.4844 14.2822C28.7048 20.8304 33.894 26.0203 40.4419 28.2414C38.9788 28.7354 37.567 29.3821 36.2312 30.1747C35.6748 30.5051 35.4913 31.2239 35.8216 31.7805Z" fill="#13294B"/>
</svg>
