<svg width="16" height="16" viewBox="0 0 16 16" fill="none" xmlns="http://www.w3.org/2000/svg">
<path d="M8.88393 8.001L15.8169 1.06795C16.061 0.823858 16.061 0.428108 15.8169 0.184046C15.5729 -0.0600155 15.1771 -0.0600467 14.933 0.184046L7.99999 7.11709L1.06697 0.184046C0.822881 -0.0600467 0.427132 -0.0600467 0.18307 0.184046C-0.0609921 0.42814 -0.0610233 0.823889 0.18307 1.06795L7.11609 8.00097L0.18307 14.934C-0.0610233 15.1781 -0.0610233 15.5739 0.18307 15.8179C0.305101 15.9399 0.465069 16.0009 0.625038 16.0009C0.785006 16.0009 0.944944 15.9399 1.06701 15.8179L7.99999 8.8849L14.933 15.8179C15.055 15.9399 15.215 16.0009 15.375 16.0009C15.5349 16.0009 15.6949 15.9399 15.8169 15.8179C16.061 15.5738 16.061 15.1781 15.8169 14.934L8.88393 8.001Z" fill="#13294B"/>
</svg>
