<svg width="120" height="33" viewBox="0 0 120 33" fill="none" xmlns="http://www.w3.org/2000/svg">
<path d="M37.3063 0.719238C38.2527 0.719238 39.0464 1.04776 39.6886 1.70479C40.3303 2.36122 40.6849 3.17827 40.753 4.15472V8.19632H49.4716C50.452 8.19632 51.2457 8.53272 51.8539 9.20612C52.4621 9.88012 52.7668 10.6711 52.7668 11.5803C52.7668 12.4561 52.4286 13.2392 51.7523 13.9296C51.0766 14.62 50.3163 14.9649 49.4716 14.9649H40.753V20.5218C40.753 21.2964 40.8965 22.0286 41.1836 22.7195C41.4707 23.4099 41.8672 24.0245 42.3744 24.5634C42.8817 25.1022 43.4814 25.5228 44.1741 25.8265C44.8669 26.1296 45.6186 26.2811 46.4293 26.2811C47.3082 26.2811 48.0599 26.1629 48.6852 25.9271C49.3104 25.6913 49.8596 25.338 50.3328 24.8664C51.0425 24.2603 51.8283 23.9488 52.6902 23.9318C53.5514 23.9154 54.3542 24.2433 55.0974 24.9173C55.4356 25.2204 55.6886 25.5659 55.8577 25.9532C56.0268 26.3405 56.1192 26.7442 56.1362 27.1648C56.1533 27.5861 56.0943 27.9988 55.9593 28.4025C55.8236 28.8068 55.6047 29.1602 55.3 29.4638C54.117 30.6088 52.8161 31.4846 51.3965 32.0908C49.9776 32.6969 48.4565 32.9999 46.8344 32.9999C45.0773 32.9999 43.4218 32.7054 41.8666 32.1162C40.312 31.5271 38.9436 30.6846 37.7612 29.5905C36.5783 28.4959 35.6404 27.1824 34.9483 25.6501C34.2549 24.1179 33.8918 22.4086 33.8584 20.523V3.90318C33.8584 2.9934 34.2051 2.23636 34.8972 1.62963C35.59 1.02351 36.3928 0.719845 37.3051 0.719845L37.3063 0.719238Z" fill="#35ABD3"/>
<path d="M27.5364 8.61377C28.456 8.61377 29.2248 8.93295 29.8441 9.57131C30.4627 10.2097 30.8076 10.9822 30.8782 11.889V29.7245C30.8782 30.6318 30.5778 31.3869 29.9771 31.992C29.3757 32.5965 28.5623 32.932 27.5371 32.9997C26.6174 32.9997 25.8397 32.7307 25.2033 32.1933C24.5669 31.6565 24.1774 30.9003 24.0361 29.9264V11.6877C24.1068 10.8142 24.4784 10.0924 25.1499 9.52114C25.8219 8.95048 26.6174 8.64762 27.5364 8.61377Z" fill="#35ABD3"/>
<path d="M27.5371 0.719238C28.4567 0.719238 29.2433 1.07028 29.8975 1.77171C30.5518 2.47379 30.8782 3.29244 30.8782 4.22833C30.8782 5.16357 30.5518 5.98223 29.8975 6.68431C29.2433 7.38574 28.4567 7.73678 27.5371 7.73678C26.5118 7.70051 25.6717 7.36825 25.0175 6.73806C24.3633 6.10788 24.0361 5.21733 24.0361 4.06576C24.0718 3.12987 24.4339 2.33842 25.1238 1.69075C25.813 1.04308 26.6174 0.719238 27.5371 0.719238Z" fill="#35ABD3"/>
<path d="M6.97097 7.54003V15.067H14.7107C15.702 15.067 16.5218 15.4034 17.1707 16.0774C17.8201 16.7508 18.1448 17.5588 18.1448 18.5019C18.1448 19.445 17.8201 20.2445 17.1707 20.9016C16.5212 21.558 15.7014 21.8865 14.7107 21.8865H6.97097V29.565C6.97097 30.5415 6.63764 31.3585 5.97099 32.015C5.30495 32.6714 4.47655 32.9999 3.48518 32.9999C2.49442 32.9999 1.66602 32.6714 0.999367 32.015C0.333327 31.3579 0 30.5415 0 29.565V4.15479C0 3.27893 0.333327 2.48732 0.999367 1.77997C1.66602 1.07261 2.49442 0.719238 3.48518 0.719238H18.1448C19.1017 0.719238 19.9129 1.05625 20.5796 1.72966C21.2456 2.40307 21.5789 3.21104 21.5789 4.15479C21.5789 5.13127 21.2456 5.93984 20.5796 6.57931C19.9129 7.21939 19.1017 7.53942 18.1448 7.53942H6.97097V7.54003Z" fill="#35ABD3"/>
<path d="M89.6427 8.62506C90.52 8.62506 91.2534 8.9441 91.8435 9.58217C92.4337 10.2202 92.7627 10.9925 92.8301 11.8988V29.7262C92.8301 30.6331 92.5436 31.3878 91.9704 31.9927C91.3967 32.5969 90.6208 32.9323 89.6427 32.9999C88.7654 32.9999 88.0241 32.7317 87.4163 32.1939C86.8092 31.6573 86.4376 30.9014 86.3028 29.928V11.6976C86.3702 10.8245 86.7248 10.103 87.3653 9.53202C88.0065 8.96162 88.7654 8.6589 89.6421 8.62506H89.6427ZM107.404 15.0209C106.628 15.0209 105.894 15.1714 105.203 15.4741C104.511 15.7762 103.904 16.1871 103.381 16.7079C102.859 17.2288 102.445 17.833 102.142 18.5212C101.838 19.2095 101.686 19.9231 101.686 20.6614C101.686 21.4337 101.838 22.1636 102.142 22.8524C102.445 23.5406 102.858 24.1364 103.381 24.6403C103.904 25.1443 104.511 25.5467 105.203 25.8488C105.894 26.1509 106.628 26.302 107.404 26.302C108.146 26.302 108.854 26.1509 109.529 25.8488C110.204 25.5467 110.802 25.1352 111.325 24.615C111.848 24.0947 112.261 23.4989 112.565 22.827C112.869 22.1557 113.02 21.4337 113.02 20.6614C113.02 19.856 112.869 19.1086 112.565 18.4209C112.261 17.7321 111.849 17.1363 111.325 16.633C110.802 16.1291 110.203 15.7351 109.529 15.4499C108.854 15.1641 108.146 15.0215 107.404 15.0215V15.0209ZM81.9515 27.1074C82.626 27.7793 82.9636 28.5763 82.9636 29.4996C82.9636 30.4229 82.626 31.2374 81.9515 31.9419C81.277 32.58 80.4756 32.899 79.5479 32.899C78.6202 32.899 77.8018 32.58 77.0939 31.9419L65.3034 21.5678V29.4742C65.3034 30.4144 64.9743 31.212 64.3162 31.867C63.6586 32.5214 62.8402 32.8489 61.8621 32.8489C60.918 32.8489 60.1081 32.5214 59.4336 31.867C58.7585 31.212 58.4209 30.4144 58.4209 29.4742V4.0933C58.4209 3.18694 58.7585 2.39781 59.4336 1.7259C60.1081 1.05459 60.9174 0.719238 61.8621 0.719238C62.8408 0.719238 63.6586 1.0552 64.3162 1.7259C64.9743 2.39781 65.3034 3.18694 65.3034 4.0933V11.9997L77.0939 1.7259C77.8018 1.05459 78.6202 0.719238 79.5479 0.719238C80.4756 0.719238 81.277 1.0552 81.9515 1.7259C82.626 2.39781 82.9636 3.19479 82.9636 4.11806C82.9636 5.04134 82.626 5.83893 81.9515 6.51024L70.1106 16.7834L81.9515 27.1074ZM89.6427 0.920454C90.52 0.920454 91.2704 1.24795 91.8945 1.90234C92.5187 2.55733 92.8307 3.32108 92.8307 4.1942C92.8307 5.06672 92.5187 5.83047 91.8945 6.48546C91.2704 7.13985 90.52 7.46735 89.6427 7.46735C88.6646 7.43351 87.8632 7.12353 87.2397 6.53561C86.6155 5.94769 86.3034 5.11687 86.3034 4.04253C86.3374 3.17002 86.6829 2.43104 87.341 1.82681C87.9986 1.22257 88.766 0.920454 89.6433 0.920454H89.6427ZM116.36 0.769395C117.237 0.769395 118.004 1.07997 118.662 1.70112C119.32 2.32228 119.649 3.11987 119.649 4.0933V20.6614C119.649 22.3074 119.32 23.8681 118.662 25.3455C118.004 26.8228 117.111 28.1153 115.98 29.2229C114.85 30.331 113.543 31.212 112.059 31.867C110.574 32.5214 109.022 32.8489 107.404 32.8489C105.784 32.8489 104.232 32.5298 102.748 31.8918C101.264 31.2537 99.9566 30.3812 98.8268 29.273C97.6963 28.1648 96.7941 26.8724 96.1196 25.395C95.445 23.9177 95.1075 22.34 95.1075 20.6608C95.1075 19.0161 95.4365 17.4548 96.0947 15.978C96.7522 14.5007 97.6465 13.2082 98.7764 12.1C99.9068 10.9925 101.213 10.1109 102.698 9.45649C104.182 8.8015 105.75 8.47461 107.404 8.47461C109.429 8.47461 111.3 8.92779 113.021 9.83414V4.04253C113.021 3.60628 113.113 3.18634 113.299 2.78391C113.484 2.38089 113.729 2.02802 114.032 1.7259C114.337 1.42438 114.691 1.18873 115.095 1.02075C115.5 0.853378 115.922 0.769395 116.36 0.769395Z" fill="#FF9E00"/>
</svg>
