<svg width="53" height="55" viewBox="0 0 53 55" fill="none" xmlns="http://www.w3.org/2000/svg">
<path fill-rule="evenodd" clip-rule="evenodd" d="M1.31029 34.9147C0.633443 34.8724 0.0477238 35.3476 0.00282107 35.9761C-0.042742 36.6046 0.469021 37.1479 1.14586 37.1902C1.82271 37.2325 2.40776 36.7573 2.45332 36.1288C2.49888 35.5003 1.98713 34.957 1.31029 34.9147Z" fill="#35ABD3"/>
<path fill-rule="evenodd" clip-rule="evenodd" d="M11.8852 39.4789C10.8218 39.3943 9.90206 40.3448 9.83053 41.6016C9.75956 42.8583 10.5633 43.9453 11.6267 44.0298C12.6901 44.1143 13.6099 43.1638 13.6814 41.9071C13.7529 40.6504 12.9486 39.5634 11.8858 39.4795L11.8852 39.4789Z" fill="#35ABD3"/>
<path fill-rule="evenodd" clip-rule="evenodd" d="M22.6719 16.9658C22.5755 18.3924 23.0067 19.6714 23.9641 20.8011C24.9612 21.8968 26.1766 22.4923 27.6096 22.5883C29.0434 22.6842 30.3087 22.2544 31.407 21.2983C32.5444 20.3088 33.1615 19.1002 33.2579 17.673C33.3542 16.2458 32.9042 14.985 31.9071 13.8893C30.9472 12.796 29.7508 12.2017 28.3171 12.1058C26.8834 12.0099 25.5991 12.4391 24.4642 13.3921C23.3659 14.3482 22.7688 15.5392 22.6725 16.9658H22.6719ZM19.3093 49.96C19.1794 50.292 19.102 50.649 19.0763 51.0302C19.0105 52.013 19.3069 52.8938 19.9661 53.6721C20.6527 54.4266 21.49 54.837 22.4773 54.9032C23.4647 54.9693 24.3367 54.6731 25.0929 54.0145C25.4795 53.6781 25.7783 53.306 25.99 52.8963C26.9657 51.0685 29.7172 46.8968 32.7889 46.427C34.7123 46.1332 36.4747 46.5739 38.8286 48.8655C39.6568 49.7761 40.6667 50.2708 41.8577 50.3503C43.0487 50.4298 44.1006 50.0729 45.0123 49.2789C45.9575 48.4563 46.4704 47.4523 46.5503 46.2667C46.6302 45.0812 46.2564 44.0334 45.4276 43.1234C43.8378 41.3126 43.1901 40.4439 42.2626 38.071C39.2074 30.2534 43.0609 23.9371 47.5553 16.6781C47.8535 16.1967 48.0218 15.6613 48.0621 15.0718C48.1285 14.089 47.8181 13.2203 47.1315 12.4658C46.4704 11.713 45.6459 11.3033 44.6586 11.2371C43.6713 11.1709 42.7864 11.4666 42.0046 12.1234C41.6284 12.4506 41.3375 12.8191 41.132 13.227C40.7972 13.8923 40.4508 14.5376 40.0916 15.161C38.5902 17.7701 36.8668 19.9956 34.8379 21.6625C32.5444 23.5468 29.8599 24.716 26.6632 24.9163C23.5159 25.113 19.8716 24.3706 15.6131 22.4456C15.1997 22.2392 14.7447 22.1196 14.2489 22.0862C13.2616 22.0201 12.3768 22.3157 11.595 22.9719C10.8382 23.63 10.4272 24.4507 10.3607 25.4335C10.2942 26.4163 10.5912 27.2971 11.251 28.0754C11.7462 28.6199 12.3347 28.9416 12.972 29.1711C15.8436 30.2043 17.3792 30.2249 19.9978 32.6719C22.6469 35.1468 24.5569 39.2359 21.0546 47.0188C20.5302 48.1838 19.6404 49.1071 19.3087 49.96H19.3093Z" fill="#35ABD3"/>
<path fill-rule="evenodd" clip-rule="evenodd" d="M46.3523 0.873857C45.6624 1.45623 45.3003 2.16919 45.2646 3.01157C45.2646 4.04807 45.5918 4.84965 46.246 5.41687C46.8996 5.98409 47.7397 6.28314 48.7656 6.31579C49.6852 6.31579 50.4718 5.99982 51.126 5.36848C51.7803 4.73655 52.1068 3.99969 52.1068 3.15789C52.1068 2.31552 51.7803 1.57866 51.126 0.94731C50.4718 0.315964 49.6852 0 48.7656 0C47.8459 0 47.0415 0.29206 46.3523 0.87502V0.873857Z" fill="#35ABD3"/>
</svg>
