<svg width="66" height="66" viewBox="0 0 66 66" fill="none" xmlns="http://www.w3.org/2000/svg">
<path d="M32.9999 0C14.7746 0 0 14.7746 0 32.9999C0 51.2253 14.7746 65.9999 32.9999 65.9999C51.2253 65.9999 65.9999 51.2253 65.9999 32.9999C65.9805 14.7827 51.2173 0.019474 32.9999 0ZM51.1665 22.8808L27.595 46.4522C26.6745 47.3725 25.1824 47.3725 24.262 46.4522L14.8334 37.0236C13.897 36.1192 13.871 34.6271 14.7754 33.6906C15.6798 32.7542 17.172 32.7283 18.1084 33.6326C18.128 33.6517 18.1473 33.6709 18.1664 33.6906L25.9285 41.4528L47.8335 19.5478C48.7699 18.6434 50.2621 18.6694 51.1665 19.6057C52.0487 20.5191 52.0487 21.9673 51.1665 22.8808Z" fill="#FF9E00"/>
</svg>
