<svg width="31" height="30" viewBox="0 0 31 30" fill="none" xmlns="http://www.w3.org/2000/svg">
<path d="M22.325 16.5C23.45 16.5 24.44 15.885 24.95 14.955L30.32 5.22C30.875 4.23 30.155 3 29.015 3H6.815L5.405 0H0.5V3H3.5L8.9 14.385L6.875 18.045C5.78 20.055 7.22 22.5 9.5 22.5H27.5V19.5H9.5L11.15 16.5H22.325ZM8.24 6H26.465L22.325 13.5H11.795L8.24 6ZM9.5 24C7.85 24 6.515 25.35 6.515 27C6.515 28.65 7.85 30 9.5 30C11.15 30 12.5 28.65 12.5 27C12.5 25.35 11.15 24 9.5 24ZM24.5 24C22.85 24 21.515 25.35 21.515 27C21.515 28.65 22.85 30 24.5 30C26.15 30 27.5 28.65 27.5 27C27.5 25.35 26.15 24 24.5 24Z" fill="#8D9FBA"/>
</svg>
