<svg width="18" height="18" viewBox="0 0 18 18" fill="none" xmlns="http://www.w3.org/2000/svg">
<path d="M9 4.4999C11.8425 4.4999 14.3775 6.0974 15.615 8.6249C15.1725 9.5399 14.55 10.3274 13.8075 10.9649L14.865 12.0224C15.9075 11.0999 16.7325 9.9449 17.25 8.6249C15.9525 5.3324 12.75 2.9999 9 2.9999C8.0475 2.9999 7.1325 3.1499 6.27 3.4274L7.5075 4.6649C7.995 4.5674 8.49 4.4999 9 4.4999ZM8.1975 5.3549L9.75 6.9074C10.1775 7.0949 10.5225 7.4399 10.71 7.8674L12.2625 9.4199C12.3225 9.1649 12.3675 8.8949 12.3675 8.6174C12.375 6.7574 10.86 5.2499 9 5.2499C8.7225 5.2499 8.46 5.2874 8.1975 5.3549ZM1.5075 2.9024L3.5175 4.9124C2.295 5.8724 1.3275 7.1474 0.75 8.6249C2.0475 11.9174 5.25 14.2499 9 14.2499C10.14 14.2499 11.235 14.0324 12.24 13.6349L14.805 16.1999L15.8625 15.1424L2.565 1.8374L1.5075 2.9024ZM7.1325 8.5274L9.09 10.4849C9.06 10.4924 9.03 10.4999 9 10.4999C7.965 10.4999 7.125 9.6599 7.125 8.6249C7.125 8.5874 7.1325 8.5649 7.1325 8.5274ZM4.5825 5.9774L5.895 7.2899C5.7225 7.7024 5.625 8.1524 5.625 8.6249C5.625 10.4849 7.14 11.9999 9 11.9999C9.4725 11.9999 9.9225 11.9024 10.3275 11.7299L11.0625 12.4649C10.4025 12.6449 9.7125 12.7499 9 12.7499C6.1575 12.7499 3.6225 11.1524 2.385 8.6249C2.91 7.5524 3.675 6.6674 4.5825 5.9774Z" fill="#8D9FBA"/>
</svg>
