<svg width="18" height="18" viewBox="0 0 18 18" fill="none" xmlns="http://www.w3.org/2000/svg">
<path d="M9 4.5C11.8425 4.5 14.3775 6.0975 15.615 8.625C14.3775 11.1525 11.8425 12.75 9 12.75C6.1575 12.75 3.6225 11.1525 2.385 8.625C3.6225 6.0975 6.1575 4.5 9 4.5ZM9 3C5.25 3 2.0475 5.3325 0.75 8.625C2.0475 11.9175 5.25 14.25 9 14.25C12.75 14.25 15.9525 11.9175 17.25 8.625C15.9525 5.3325 12.75 3 9 3ZM9 6.75C10.035 6.75 10.875 7.59 10.875 8.625C10.875 9.66 10.035 10.5 9 10.5C7.965 10.5 7.125 9.66 7.125 8.625C7.125 7.59 7.965 6.75 9 6.75ZM9 5.25C7.14 5.25 5.625 6.765 5.625 8.625C5.625 10.485 7.14 12 9 12C10.86 12 12.375 10.485 12.375 8.625C12.375 6.765 10.86 5.25 9 5.25Z" fill="#8D9FBA"/>
</svg>
