<svg width="16" height="8" viewBox="0 0 16 8" fill="none" xmlns="http://www.w3.org/2000/svg">
<path d="M8.42395 7.78279L15.0134 1.72295C15.166 1.5828 15.25 1.3957 15.25 1.1962C15.25 0.996706 15.166 0.809609 15.0134 0.669453L14.5283 0.223188C14.2121 -0.0671998 13.6983 -0.0671998 13.3827 0.223188L7.84922 5.31178L2.30963 0.217542C2.1571 0.0773852 1.95376 1.49908e-07 1.73695 1.52352e-07C1.51989 1.54799e-07 1.31656 0.0773852 1.16391 0.217542L0.678867 0.663807C0.526338 0.804074 0.442307 0.99106 0.442307 1.19056C0.442307 1.39005 0.526338 1.57715 0.678867 1.71731L7.27438 7.78279C7.42739 7.92328 7.63168 8.00044 7.84886 8C8.06688 8.00044 8.27106 7.92328 8.42395 7.78279Z" fill="#13294B"/>
</svg>
