<svg width="20" height="20" viewBox="0 0 20 20" fill="none" xmlns="http://www.w3.org/2000/svg">
<path d="M9.99199 1.6665C5.39199 1.6665 1.66699 5.39984 1.66699 9.99984C1.66699 14.5998 5.39199 18.3332 9.99199 18.3332C14.6003 18.3332 18.3337 14.5998 18.3337 9.99984C18.3337 5.39984 14.6003 1.6665 9.99199 1.6665ZM10.0003 16.6665C6.31699 16.6665 3.33366 13.6832 3.33366 9.99984C3.33366 6.3165 6.31699 3.33317 10.0003 3.33317C13.6837 3.33317 16.667 6.3165 16.667 9.99984C16.667 13.6832 13.6837 16.6665 10.0003 16.6665Z" fill="#13294B"/>
<path d="M10.417 5.8335H9.16699V10.8335L13.542 13.4585L14.167 12.4335L10.417 10.2085V5.8335Z" fill="#13294B"/>
</svg>
