<svg width="26" height="25" viewBox="0 0 26 25" fill="none" xmlns="http://www.w3.org/2000/svg">
<path d="M24.7746 12.5C24.7746 19.1277 19.4056 24.5 12.7833 24.5C6.16102 24.5 0.791992 19.1277 0.791992 12.5C0.791992 5.87226 6.16102 0.5 12.7833 0.5C19.4056 0.5 24.7746 5.87226 24.7746 12.5Z" stroke="white"/>
<path d="M18.3476 12.5341C18.3476 9.47684 15.8704 7 12.8173 7C9.76223 7 7.28711 9.47684 7.28711 12.5341C7.28711 15.2956 9.30875 17.5853 11.9532 18V14.1341H10.5489V12.5344H11.9532V11.3145C11.9532 9.92787 12.7776 9.16209 14.0412 9.16209C14.6465 9.16209 15.28 9.27001 15.28 9.27001V10.6317H14.5815C13.8957 10.6317 13.6814 11.0589 13.6814 11.4964V12.5341H15.215L14.9686 14.1338H13.6814V17.9997C16.3238 17.5849 18.3476 15.2952 18.3476 12.5337V12.5341Z" fill="white"/>
</svg>
