<svg width="26" height="25" viewBox="0 0 26 25" fill="none" xmlns="http://www.w3.org/2000/svg">
<path d="M24.7991 12.5C24.7991 19.1277 19.43 24.5 12.8077 24.5C6.18543 24.5 0.816406 19.1277 0.816406 12.5C0.816406 5.87226 6.18543 0.5 12.8077 0.5C19.43 0.5 24.7991 5.87226 24.7991 12.5Z" stroke="white"/>
<path d="M12.8063 10.6659C11.7971 10.6659 10.9735 11.4901 10.9735 12.5C10.9735 13.5099 11.7971 14.3341 12.8063 14.3341C13.8156 14.3341 14.6392 13.5099 14.6392 12.5C14.6392 11.4901 13.8156 10.6659 12.8063 10.6659ZM18.3035 12.5C18.3035 11.7405 18.3104 10.9879 18.2677 10.2297C18.2251 9.34912 18.0244 8.56759 17.3809 7.92366C16.736 7.27835 15.9564 7.07884 15.0764 7.03618C14.3174 6.99353 13.5653 7.00041 12.8077 7.00041C12.0487 7.00041 11.2966 6.99353 10.539 7.03618C9.65901 7.07884 8.87803 7.27972 8.23454 7.92366C7.58968 8.56897 7.39031 9.34912 7.34768 10.2297C7.30506 10.9892 7.31193 11.7419 7.31193 12.5C7.31193 13.2581 7.30506 14.0121 7.34768 14.7703C7.39031 15.6509 7.59105 16.4324 8.23454 17.0763C8.8794 17.7217 9.65901 17.9212 10.539 17.9638C11.298 18.0065 12.0501 17.9996 12.8077 17.9996C13.5667 17.9996 14.3188 18.0065 15.0764 17.9638C15.9564 17.9212 16.7374 17.7203 17.3809 17.0763C18.0257 16.431 18.2251 15.6509 18.2677 14.7703C18.3117 14.0121 18.3035 13.2595 18.3035 12.5ZM12.8063 15.322C11.2457 15.322 9.98626 14.0617 9.98626 12.5C9.98626 10.9383 11.2457 9.67797 12.8063 9.67797C14.3669 9.67797 15.6264 10.9383 15.6264 12.5C15.6264 14.0617 14.3669 15.322 12.8063 15.322ZM15.7419 10.2215C15.3775 10.2215 15.0833 9.92701 15.0833 9.56239C15.0833 9.19777 15.3775 8.90332 15.7419 8.90332C16.1063 8.90332 16.4005 9.19777 16.4005 9.56239C16.4006 9.64897 16.3837 9.73472 16.3506 9.81473C16.3175 9.89475 16.269 9.96744 16.2079 10.0287C16.1467 10.0899 16.074 10.1384 15.9941 10.1715C15.9141 10.2046 15.8284 10.2216 15.7419 10.2215Z" fill="white"/>
</svg>
