<svg width="51" height="55" viewBox="0 0 51 55" fill="none" xmlns="http://www.w3.org/2000/svg">
<path fill-rule="evenodd" clip-rule="evenodd" d="M1.28249 35.1216C0.620007 35.0802 0.0467115 35.5453 0.00276123 36.1605C-0.0418353 36.7756 0.459072 37.3074 1.12156 37.3488C1.78404 37.3902 2.35668 36.9251 2.40128 36.3099C2.44588 35.6947 1.94498 35.163 1.28249 35.1216Z" fill="white"/>
<path fill-rule="evenodd" clip-rule="evenodd" d="M11.6316 39.5887C10.5908 39.506 9.69049 40.4364 9.62048 41.6664C9.55102 42.8965 10.3377 43.9604 11.3785 44.0431C12.4194 44.1259 13.3196 43.1955 13.3897 41.9655C13.4597 40.7354 12.6724 39.6715 11.6321 39.5894L11.6316 39.5887Z" fill="white"/>
<path fill-rule="evenodd" clip-rule="evenodd" d="M22.1898 17.5532C22.0955 18.9495 22.5175 20.2014 23.4547 21.3072C24.4306 22.3796 25.6202 22.9625 27.0229 23.0564C28.4262 23.1503 29.6647 22.7296 30.7397 21.7938C31.8529 20.8253 32.457 19.6423 32.5513 18.2454C32.6456 16.8485 32.2051 15.6144 31.2292 14.5419C30.2897 13.4718 29.1186 12.8902 27.7153 12.7963C26.312 12.7024 25.0549 13.1225 23.9441 14.0553C22.8691 14.9911 22.2847 16.1569 22.1904 17.5532H22.1898ZM18.8986 49.8475C18.7714 50.1725 18.6956 50.5219 18.6706 50.895C18.6061 51.857 18.8962 52.7191 19.5414 53.4809C20.2135 54.2194 21.0331 54.6211 21.9994 54.6859C22.9658 54.7506 23.8194 54.4607 24.5595 53.816C24.9379 53.4868 25.2304 53.1226 25.4375 52.7215C26.3926 50.9325 29.0857 46.8493 32.0923 46.3895C33.9749 46.1019 35.6999 46.5332 38.0039 48.7762C38.8145 49.6675 39.8029 50.1517 40.9687 50.2296C42.1344 50.3074 43.164 49.958 44.0564 49.1809C44.9816 48.3758 45.4836 47.393 45.5618 46.2326C45.6399 45.0722 45.2741 44.0466 44.4629 43.156C42.9068 41.3836 42.2729 40.5333 41.365 38.2107C38.3746 30.559 42.1463 24.3766 46.5454 17.2716C46.8373 16.8004 47.0021 16.2763 47.0415 15.6994C47.1065 14.7374 46.8027 13.8872 46.1306 13.1486C45.4836 12.4118 44.6766 12.0108 43.7102 11.946C42.7438 11.8813 41.8777 12.1706 41.1125 12.8135C40.7442 13.1338 40.4595 13.4944 40.2584 13.8937C39.9307 14.5449 39.5916 15.1765 39.2401 15.7867C37.7705 18.3405 36.0837 20.5187 34.0978 22.1503C31.8529 23.9946 29.2254 25.139 26.0965 25.335C23.0159 25.5276 19.4489 24.8009 15.2808 22.9168C14.8761 22.7148 14.4308 22.5977 13.9456 22.565C12.9792 22.5003 12.1131 22.7896 11.3479 23.4319C10.6071 24.076 10.2048 24.8793 10.1398 25.8413C10.0747 26.8032 10.3654 27.6654 11.0112 28.4271C11.4959 28.9601 12.0719 29.275 12.6957 29.4996C15.5064 30.5109 17.0094 30.5311 19.5725 32.9262C22.1654 35.3486 24.0348 39.3509 20.6069 46.9688C20.0936 48.109 19.2227 49.0127 18.898 49.8475H18.8986Z" fill="white"/>
<path fill-rule="evenodd" clip-rule="evenodd" d="M45.3673 1.80259C44.6921 2.37261 44.3376 3.07045 44.3027 3.89496C44.3027 4.90947 44.6229 5.69404 45.2633 6.24923C45.903 6.80442 46.7253 7.09713 47.7294 7.12908C48.6295 7.12908 49.3994 6.81982 50.0398 6.20187C50.6802 5.58334 50.9997 4.86211 50.9997 4.03818C50.9997 3.21367 50.6802 2.49244 50.0398 1.87448C49.3994 1.25653 48.6295 0.947266 47.7294 0.947266C46.8293 0.947266 46.0419 1.23313 45.3673 1.80373V1.80259Z" fill="white"/>
<path fill-rule="evenodd" clip-rule="evenodd" d="M1.28249 35.1216C0.620007 35.0802 0.0467115 35.5453 0.00276123 36.1605C-0.0418353 36.7756 0.459072 37.3074 1.12156 37.3488C1.78404 37.3902 2.35668 36.9251 2.40128 36.3099C2.44588 35.6947 1.94498 35.163 1.28249 35.1216Z" fill="white"/>
<path fill-rule="evenodd" clip-rule="evenodd" d="M11.6316 39.5887C10.5908 39.506 9.69049 40.4364 9.62048 41.6664C9.55102 42.8965 10.3377 43.9604 11.3785 44.0431C12.4194 44.1259 13.3196 43.1955 13.3897 41.9655C13.4597 40.7354 12.6724 39.6715 11.6321 39.5894L11.6316 39.5887Z" fill="white"/>
<path fill-rule="evenodd" clip-rule="evenodd" d="M22.1898 17.5532C22.0955 18.9495 22.5175 20.2014 23.4547 21.3072C24.4306 22.3796 25.6202 22.9625 27.0229 23.0564C28.4262 23.1503 29.6647 22.7296 30.7397 21.7938C31.8529 20.8253 32.457 19.6423 32.5513 18.2454C32.6456 16.8485 32.2051 15.6144 31.2292 14.5419C30.2897 13.4718 29.1186 12.8902 27.7153 12.7963C26.312 12.7024 25.0549 13.1225 23.9441 14.0553C22.8691 14.9911 22.2847 16.1569 22.1904 17.5532H22.1898ZM18.8986 49.8475C18.7714 50.1725 18.6956 50.5219 18.6706 50.895C18.6061 51.857 18.8962 52.7191 19.5414 53.4809C20.2135 54.2194 21.0331 54.6211 21.9994 54.6859C22.9658 54.7506 23.8194 54.4607 24.5595 53.816C24.9379 53.4868 25.2304 53.1226 25.4375 52.7215C26.3926 50.9325 29.0857 46.8493 32.0923 46.3895C33.9749 46.1019 35.6999 46.5332 38.0039 48.7762C38.8145 49.6675 39.8029 50.1517 40.9687 50.2296C42.1344 50.3074 43.164 49.958 44.0564 49.1809C44.9816 48.3758 45.4836 47.393 45.5618 46.2326C45.6399 45.0722 45.2741 44.0466 44.4629 43.156C42.9068 41.3836 42.2729 40.5333 41.365 38.2107C38.3746 30.559 42.1463 24.3766 46.5454 17.2716C46.8373 16.8004 47.0021 16.2763 47.0415 15.6994C47.1065 14.7374 46.8027 13.8872 46.1306 13.1486C45.4836 12.4118 44.6766 12.0108 43.7102 11.946C42.7438 11.8813 41.8777 12.1706 41.1125 12.8135C40.7442 13.1338 40.4595 13.4944 40.2584 13.8937C39.9307 14.5449 39.5916 15.1765 39.2401 15.7867C37.7705 18.3405 36.0837 20.5187 34.0978 22.1503C31.8529 23.9946 29.2254 25.139 26.0965 25.335C23.0159 25.5276 19.4489 24.8009 15.2808 22.9168C14.8761 22.7148 14.4308 22.5977 13.9456 22.565C12.9792 22.5003 12.1131 22.7896 11.3479 23.4319C10.6071 24.076 10.2048 24.8793 10.1398 25.8413C10.0747 26.8032 10.3654 27.6654 11.0112 28.4271C11.4959 28.9601 12.0719 29.275 12.6957 29.4996C15.5064 30.5109 17.0094 30.5311 19.5725 32.9262C22.1654 35.3486 24.0348 39.3509 20.6069 46.9688C20.0936 48.109 19.2227 49.0127 18.898 49.8475H18.8986Z" fill="white"/>
<path fill-rule="evenodd" clip-rule="evenodd" d="M45.3673 1.80259C44.6921 2.37261 44.3376 3.07045 44.3027 3.89496C44.3027 4.90947 44.6229 5.69404 45.2633 6.24923C45.903 6.80442 46.7253 7.09713 47.7294 7.12908C48.6295 7.12908 49.3994 6.81982 50.0398 6.20187C50.6802 5.58334 50.9997 4.86211 50.9997 4.03818C50.9997 3.21367 50.6802 2.49244 50.0398 1.87448C49.3994 1.25653 48.6295 0.947266 47.7294 0.947266C46.8293 0.947266 46.0419 1.23313 45.3673 1.80373V1.80259Z" fill="white"/>
</svg>
