<svg width="26" height="25" viewBox="0 0 26 25" fill="none" xmlns="http://www.w3.org/2000/svg">
<path d="M16.881 9H8.63674C8.27244 9.00039 7.92317 9.14481 7.66557 9.40157C7.40798 9.65832 7.26309 10.0065 7.2627 10.3696V16.2391C7.26309 16.6022 7.40798 16.9504 7.66557 17.2071C7.92317 17.4639 8.27244 17.6083 8.63674 17.6087H16.881C17.2453 17.6083 17.5946 17.4639 17.8522 17.2071C18.1098 16.9504 18.2547 16.6022 18.2551 16.2391V10.3696C18.2547 10.0065 18.1098 9.65832 17.8522 9.40157C17.5946 9.14481 17.2453 9.00039 16.881 9ZM16.5331 11.2654L12.9998 14.0045C12.9309 14.0579 12.8461 14.0869 12.7589 14.0869C12.6716 14.0869 12.5868 14.0579 12.5179 14.0045L8.98467 11.2654C8.94316 11.2342 8.90829 11.195 8.88209 11.1502C8.85589 11.1054 8.83889 11.0559 8.83206 11.0045C8.82524 10.9531 8.82873 10.9008 8.84234 10.8508C8.85595 10.8007 8.8794 10.7539 8.91133 10.713C8.94326 10.672 8.98303 10.6378 9.02834 10.6123C9.07364 10.5869 9.12358 10.5706 9.17524 10.5645C9.2269 10.5585 9.27926 10.5627 9.32927 10.5769C9.37928 10.5912 9.42595 10.6152 9.46657 10.6476L12.7589 13.1999L16.0512 10.6476C16.1335 10.5857 16.237 10.5585 16.3393 10.572C16.4415 10.5855 16.5344 10.6385 16.5977 10.7197C16.661 10.8009 16.6897 10.9037 16.6777 11.0058C16.6656 11.1079 16.6136 11.2012 16.5331 11.2654Z" fill="white"/>
<path d="M24.7502 12.5C24.7502 19.1277 19.3812 24.5 12.7589 24.5C6.1366 24.5 0.767578 19.1277 0.767578 12.5C0.767578 5.87226 6.1366 0.5 12.7589 0.5C19.3812 0.5 24.7502 5.87226 24.7502 12.5Z" stroke="white"/>
</svg>
