<svg width="49" height="16" viewBox="0 0 49 16" fill="none" xmlns="http://www.w3.org/2000/svg">
<path d="M20.0748 1.19238L17.6455 15.4584H21.5308L23.9621 1.19238H20.0748Z" fill="white"/>
<path d="M14.3883 1.20808L10.5829 10.9371L10.1772 9.46808C9.42671 7.69808 7.29618 5.15608 4.79492 3.55408L8.27451 15.4511L12.3857 15.4441L18.5044 1.20508L14.3883 1.20808Z" fill="white"/>
<path d="M8.70215 2.22931C8.47631 1.36031 7.82176 1.10131 7.00933 1.07031H0.985512L0.935547 1.35431C5.62329 2.49231 8.72514 5.23431 10.0122 8.53131L8.70215 2.22931Z" fill="white"/>
<path d="M31.8374 3.92727C33.1085 3.90727 34.0299 4.18526 34.7454 4.47326L35.0962 4.63827L35.6218 1.54626C34.8523 1.25726 33.6462 0.947266 32.1412 0.947266C28.3019 0.947266 25.5958 2.88226 25.5748 5.65526C25.5498 7.70426 27.5024 8.84827 28.9774 9.53127C30.4914 10.2313 30.999 10.6763 30.992 11.3013C30.98 12.2563 29.7848 12.6943 28.6686 12.6943C27.1127 12.6943 26.2863 12.4793 25.0102 11.9473L24.5095 11.7193L23.9629 14.9123C24.8723 15.3113 26.5501 15.6543 28.2919 15.6723C32.376 15.6723 35.0302 13.7603 35.0582 10.7973C35.0752 9.17626 34.0389 7.93926 31.7935 6.92426C30.4344 6.26226 29.603 5.82226 29.611 5.15426C29.611 4.56126 30.3165 3.92727 31.8374 3.92727Z" fill="white"/>
<path d="M45.5926 1.20898H42.5907C41.6584 1.20898 40.9648 1.46298 40.5551 2.39298L34.7861 15.467H38.8663C38.8663 15.467 39.5318 13.709 39.6827 13.324C40.1294 13.324 44.0937 13.33 44.6583 13.33C44.7742 13.828 45.1319 15.467 45.1319 15.467H48.7364L45.5926 1.20898ZM40.801 10.404C41.1207 9.58498 42.3489 6.41698 42.3489 6.41698C42.3279 6.45598 42.6657 5.59198 42.8665 5.05498L43.1283 6.28498C43.1283 6.28498 43.8728 9.69098 44.0287 10.404H40.801Z" fill="white"/>
</svg>
