<svg width="26" height="25" viewBox="0 0 26 25" fill="none" xmlns="http://www.w3.org/2000/svg">
<path d="M18.007 10.2108C17.9445 9.97853 17.8222 9.76671 17.6524 9.59642C17.4826 9.42613 17.2712 9.30331 17.0393 9.24018C16.1792 9.00385 12.7383 9 12.7383 9C12.7383 9 9.29789 8.99616 8.43725 9.22205C8.20543 9.28808 7.99447 9.41264 7.82462 9.58377C7.65477 9.75489 7.53173 9.96684 7.46731 10.1993C7.24048 11.0599 7.23828 12.8451 7.23828 12.8451C7.23828 12.8451 7.23609 14.639 7.46127 15.4909C7.58759 15.9619 7.95832 16.334 8.42956 16.461C9.29844 16.6973 12.73 16.7012 12.73 16.7012C12.73 16.7012 16.171 16.705 17.031 16.4797C17.2631 16.4166 17.4747 16.2941 17.6449 16.1242C17.8151 15.9542 17.938 15.7428 18.0015 15.5107C18.2289 14.6506 18.2306 12.866 18.2306 12.866C18.2306 12.866 18.2416 11.0715 18.007 10.2108ZM11.6376 14.4989L11.6404 11.2012L14.5002 12.8528L11.6376 14.4989Z" fill="white"/>
<path d="M24.7258 12.5C24.7258 19.1277 19.3568 24.5 12.7345 24.5C6.11219 24.5 0.743164 19.1277 0.743164 12.5C0.743164 5.87226 6.11219 0.5 12.7345 0.5C19.3568 0.5 24.7258 5.87226 24.7258 12.5Z" stroke="white"/>
</svg>
