<svg width="60" height="60" viewBox="0 0 60 60" fill="none" xmlns="http://www.w3.org/2000/svg">
<path d="M27.2711 2.54693C38.9175 4.16802 47.6781 11.74 47.6781 24.1242V35.6851C47.6781 36.5719 46.9592 37.2908 46.0724 37.2908H40.7201V24.1242C40.7201 18.7013 38.3598 14.4816 33.8949 11.9211C30.3667 9.89901 25.8077 9.07048 21.7432 9.18502V4.39089C21.7432 3.17261 22.7576 2.20245 23.975 2.2518C24.889 2.28895 25.988 2.36837 27.2711 2.54693Z" fill="#40CFFF"/>
<path d="M47.678 24.1243V35.6852C47.678 36.5715 46.9586 37.2909 46.0723 37.2909H40.72V24.1243C40.72 18.7014 38.3597 14.4817 33.8948 11.9212C32.53 11.1387 31.011 10.5349 29.4268 10.096V2.92188C39.9814 5.13664 47.678 12.5174 47.678 24.1243Z" fill="#40CFFF"/>
<path d="M41.2548 24.1244V41.5042H18.102C18.2959 32.1787 23.1942 29.1234 24.6543 24.5376L16.8474 28.6492C16.1195 29.0335 15.2193 28.8033 14.7622 28.1182L10.3733 21.5274C9.9441 20.883 10.0372 20.0235 10.5928 19.485C10.6977 19.3831 9.32752 20.7145 21.7427 8.65055C23.9928 8.58911 29.4612 8.76359 34.1609 11.4577C38.8014 14.1178 41.2548 18.4981 41.2548 24.1244Z" fill="#40CFFF"/>
<g style="mix-blend-mode:multiply" opacity="0.5">
<path d="M41.2553 24.1243V41.5041H29.4268V9.53723C30.9939 9.96006 32.6188 10.5734 34.1614 11.4576C38.8018 14.1177 41.2553 18.498 41.2553 24.1243Z" fill="#40CFFF"/>
</g>
<path d="M45.5353 42.5747V48.9974H14.4922V42.5747C14.4922 41.6883 15.2115 40.969 16.0979 40.969H43.9296C44.816 40.969 45.5353 41.6883 45.5353 42.5747Z" fill="#FFC36E"/>
<path d="M47.1434 48.4937H12.8889C12.0021 48.4937 11.2832 49.2126 11.2832 50.0993V55.4516C11.2832 56.3384 12.0021 57.0573 12.8889 57.0573H47.1434C48.0301 57.0573 48.749 56.3384 48.749 55.4516V50.0993C48.749 49.2126 48.0301 48.4937 47.1434 48.4937Z" fill="#FF9E00"/>
</svg>
