<svg width="60" height="60" viewBox="0 0 60 60" fill="none" xmlns="http://www.w3.org/2000/svg">
<path d="M47.688 11.9686C46.6327 10.6519 45.1417 9.6837 43.3989 9.29643L43.215 9.2577C43.0117 8.68647 42.7212 8.16366 42.3533 7.68925C41.5981 6.71139 40.5138 5.99494 39.2551 5.67544C36.9799 5.10421 34.8596 4.05858 33.0394 2.59663L31.7227 1.54131C31.2386 1.15404 30.6286 0.94104 29.9993 0.94104C29.37 0.94104 28.7601 1.15404 28.276 1.54131L26.9592 2.59663C25.1391 4.05858 23.0188 5.10421 20.7435 5.67544C19.4849 5.99494 18.4005 6.71139 17.6454 7.68925C17.2775 8.16366 16.987 8.68647 16.7837 9.2577L16.5997 9.29643C14.857 9.6837 13.366 10.6519 12.3107 11.9686C11.2554 13.2756 10.6357 14.9409 10.6357 16.732C10.6357 17.8745 10.8875 18.9782 11.3619 19.9851C11.4877 19.8109 11.6233 19.6559 11.7685 19.501C12.4753 18.8039 13.4435 18.3683 14.5085 18.3683H16.4448V16.8869C16.4448 15.9381 16.7934 15.0377 17.4033 14.3406C17.7325 13.963 18.1295 13.6532 18.5845 13.4209L20.3175 12.5592C21.3825 12.9852 22.4572 13.3337 23.5609 13.6048C25.6716 14.1567 27.8306 14.4278 29.9993 14.4278C32.1681 14.4278 34.3271 14.1567 36.4377 13.6048C37.5415 13.3337 38.6161 12.9852 39.6811 12.5592L41.4142 13.4209C41.8692 13.6532 42.2662 13.963 42.5954 14.3406C43.2053 15.0377 43.5538 15.9381 43.5538 16.8869V18.3683H45.4902C46.5552 18.3683 47.5234 18.8039 48.2302 19.501C48.3754 19.6559 48.5109 19.8109 48.6368 19.9851C49.1112 18.9782 49.3629 17.8745 49.3629 16.732C49.3629 14.9409 48.7433 13.2756 47.688 11.9686Z" fill="#575757"/>
<path d="M40.6299 55.6335C41.2302 55.9336 41.6175 56.5533 41.6175 57.2407C41.6175 58.2282 40.8139 59.0318 39.8264 59.0318H22.2539C28.063 59.0318 36.0505 53.581 39.6811 48.4109V55.1591L40.6299 55.6335Z" fill="#40CFFF"/>
<path d="M37.6972 37.7318C38.1813 38.6709 38.5879 39.6585 38.8977 40.6654C36.1674 46.3099 26.8632 53.2227 20.3184 53.2227V45.8645C20.3184 45.1287 20.3668 44.4026 20.4539 43.6764C20.7153 41.5948 21.3446 39.581 22.3031 37.7318C22.5161 37.3348 22.7388 36.9379 22.9712 36.5603C24.2395 37.1799 25.624 37.5672 27.0956 37.6931V38.7C27.0956 39.5036 27.4248 40.2297 27.9476 40.7525C28.4704 41.2753 29.1966 41.6045 30.0001 41.6045C31.6073 41.6045 32.9047 40.3072 32.9047 38.7V37.6931C34.3763 37.5672 35.7608 37.1799 37.0291 36.5603C37.2615 36.9379 37.4842 37.3348 37.6972 37.7318Z" fill="#40CFFF"/>
<path d="M20.3172 53.2227C26.8621 53.2227 36.1663 46.3099 38.8966 40.6654C39.1773 41.5658 39.3807 42.4856 39.5065 43.4247C39.6227 44.238 39.6808 45.0513 39.6808 45.8645V48.4108C36.0501 53.5809 28.0626 59.0318 22.2536 59.0318H20.172C19.1844 59.0318 18.3809 58.2282 18.3809 57.2406C18.3809 56.5532 18.7681 55.9336 19.3684 55.6335L20.3172 55.1591V53.2227Z" fill="#28BCFF"/>
<path d="M53.1978 32.6199C54.195 33.5203 54.4661 34.8661 53.9433 36.0279C53.6722 36.6476 53.1494 37.122 52.5588 37.4512L44.6391 41.7692C43.0416 42.6406 41.3086 43.2021 39.5078 43.4248C39.3819 42.4857 39.1786 41.5659 38.8978 40.6655C38.588 39.6586 38.1814 38.6711 37.6973 37.7319H38.0168C39.2657 37.7319 40.4953 37.4608 41.6281 36.9477L48.3956 33.8592L48.5602 33.53C49.054 32.5425 50.0609 31.9229 51.1646 31.9229H51.213C51.9392 31.9229 52.6653 32.1359 53.1978 32.6199Z" fill="#FFCEBF"/>
<path d="M15.3608 39.5036C17.4908 38.3418 19.8725 37.7318 22.3026 37.7318C21.3441 39.581 20.7148 41.5948 20.4534 43.6764C19.737 43.8023 19.0399 44.025 18.3718 44.3251L11.6043 47.4136L11.4397 47.7428C10.9459 48.7303 9.93899 49.35 8.83527 49.35H8.78686C8.06072 49.35 7.33459 49.137 6.80209 48.6529C5.80486 47.7525 5.53377 46.4067 6.05659 45.2449C6.33736 44.6252 6.8505 44.1508 7.44109 43.8217L15.3608 39.5036Z" fill="#FFCEBF"/>
<path d="M32.9038 37.6931V38.7C32.9038 40.3072 31.6064 41.6046 29.9993 41.6046C29.1957 41.6046 28.4695 41.2754 27.9467 40.7526C27.4239 40.2297 27.0947 39.5036 27.0947 38.7V37.6931C27.4142 37.7222 27.7337 37.7318 28.0629 37.7318H31.9356C32.2648 37.7318 32.5843 37.7222 32.9038 37.6931Z" fill="#FFCEBF"/>
<path d="M48.6376 19.9851C49.0927 20.6241 49.3638 21.3987 49.3638 22.241C49.3638 24.3807 47.6307 26.1137 45.491 26.1137H43.5547V18.3683H45.491C46.556 18.3683 47.5242 18.804 48.231 19.5011C48.3762 19.656 48.5118 19.8109 48.6376 19.9851Z" fill="#FFCEBF"/>
<path d="M36.4382 13.6048C37.5419 13.3337 38.6166 12.9852 39.6816 12.5592L41.4147 13.4209C41.8697 13.6532 42.2667 13.9631 42.5958 14.3407C43.2058 15.0377 43.5543 15.9381 43.5543 16.887V18.3683V26.1137C43.5543 30.7126 40.8918 34.6821 37.0288 36.5604C35.7605 37.18 34.376 37.5673 32.9044 37.6931C32.5849 37.7222 32.2654 37.7319 31.9362 37.7319H28.0635C27.7343 37.7319 27.4148 37.7222 27.0953 37.6931C25.6237 37.5673 24.2392 37.18 22.9708 36.5604C19.1078 34.6821 16.4453 30.7126 16.4453 26.1137V18.3683V16.887C16.4453 15.9381 16.7939 15.0377 17.4038 14.3407C17.733 13.9631 18.1299 13.6532 18.585 13.4209L20.318 12.5592C21.383 12.9852 22.4577 13.3337 23.5614 13.6048C25.6721 14.1567 27.8311 14.4278 29.9998 14.4278C32.1685 14.4278 34.3276 14.1567 36.4382 13.6048Z" fill="#FFCEBF"/>
<path d="M16.4448 18.3683V26.1137H14.5085C12.3688 26.1137 10.6357 24.3807 10.6357 22.241C10.6357 21.3987 10.9068 20.6241 11.3619 19.9851C11.4877 19.8109 11.6233 19.656 11.7685 19.5011C12.4753 18.804 13.4435 18.3683 14.5085 18.3683H16.4448Z" fill="#FFCEBF"/>
<path d="M34.841 28.05V29.0182C34.841 31.6904 32.6723 33.8591 30.0001 33.8591C27.3279 33.8591 25.1592 31.6904 25.1592 29.0182V28.05H34.841Z" fill="#FF826E"/>
<path d="M21.9406 23.3316C21.4407 23.3316 21.0352 22.9265 21.0352 22.4261V20.9055C21.0352 20.4056 21.4407 20 21.9406 20C22.4409 20 22.8461 20.4056 22.8461 20.9055V22.4261C22.8461 22.9265 22.4409 23.3316 21.9406 23.3316Z" fill="#575757"/>
<path d="M22.9764 25.5668H20.9055C20.4051 25.5668 20 25.1617 20 24.6613C20 24.1614 20.4051 23.7559 20.9055 23.7559H22.9764C23.4767 23.7559 23.8818 24.1614 23.8818 24.6613C23.8818 25.1617 23.4767 25.5668 22.9764 25.5668Z" fill="#F98084" fill-opacity="0.5"/>
<path d="M37.5832 23.3316C37.0833 23.3316 36.6777 22.9265 36.6777 22.4261V20.9055C36.6777 20.4056 37.0833 20 37.5832 20C38.0835 20 38.4886 20.4056 38.4886 20.9055V22.4261C38.4886 22.9265 38.0835 23.3316 37.5832 23.3316Z" fill="#575757"/>
<path d="M38.618 25.5668H36.5471C36.0467 25.5668 35.6416 25.1617 35.6416 24.6613C35.6416 24.1614 36.0467 23.7559 36.5471 23.7559H38.618C39.1183 23.7559 39.5234 24.1614 39.5234 24.6613C39.5234 25.1617 39.1183 25.5668 38.618 25.5668Z" fill="#F98084" fill-opacity="0.5"/>
</svg>
