<svg width="60" height="60" viewBox="0 0 60 60" fill="none" xmlns="http://www.w3.org/2000/svg">
<path d="M30.8816 46.6185L13.3813 29.1182C12.8932 28.6302 12.1019 28.6302 11.6137 29.1182L2.13857 38.5933C-0.711958 41.4426 -0.713013 46.0633 2.13634 48.9138L2.13857 48.916L11.0838 57.8613C13.933 60.7118 18.5537 60.7128 21.4043 57.8635L21.4065 57.8613L30.8792 48.3886C31.3687 47.9018 31.3708 47.1102 30.8839 46.6207L30.8816 46.6185Z" fill="#40CFFF"/>
<path d="M13.7488 52.5012C13.4171 52.5018 13.0986 52.3705 12.8638 52.1361L7.86365 47.136C7.38399 46.6395 7.3977 45.8481 7.89435 45.3684C8.37882 44.9005 9.14676 44.9005 9.63123 45.3684L14.6314 50.3685C15.1188 50.8575 15.1176 51.649 14.6286 52.1364C14.3949 52.3693 14.0787 52.5005 13.7488 52.5012Z" fill="#35ABD3"/>
<path d="M18.7478 50.0011C18.416 50.0016 18.0976 49.8704 17.8628 49.636L10.3626 42.1359C9.88297 41.6393 9.8968 40.8479 10.3933 40.3683C10.8778 39.9003 11.6457 39.9003 12.1302 40.3683L19.6304 47.8684C20.1178 48.3574 20.1166 49.1489 19.6276 49.6362C19.394 49.8692 19.0777 50.0004 18.7478 50.0011Z" fill="#35ABD3"/>
<path d="M56.2491 32.5008V31.2507C56.5605 31.2539 56.8617 31.1406 57.0941 30.9332C58.9713 29.0155 60.0154 26.4341 59.9992 23.7506C59.9992 19.218 52.0815 0 36.2486 0C20.5433 0 9.99805 21.7355 9.99805 26.2506C9.99805 32.6057 24.9984 48.751 32.4985 48.751C39.8562 48.751 57.499 44.4334 57.499 33.7507C57.4991 33.0605 56.9394 32.5008 56.2491 32.5008Z" fill="#FFC36E"/>
<path d="M43.7491 37.5009C43.4173 37.5015 43.0989 37.3702 42.864 37.1359C40.3211 34.5338 39.6031 30.6529 41.0465 27.3131C42.0084 24.5385 44.5655 22.6314 47.4991 22.5005C53.4993 22.5005 57.4993 29.2707 57.4993 33.7507C57.4993 34.4411 56.9396 35.0008 56.2492 35.0008C55.5589 35.0008 54.9992 34.4411 54.9992 33.7507C54.9992 30.3081 51.7792 25.0005 47.499 25.0005C45.5892 25.1637 43.9601 26.4489 43.3565 28.2681C42.3134 30.6748 42.8159 33.4725 44.6315 35.3657C45.1203 35.8532 45.1212 36.6447 44.6337 37.1335C44.3993 37.3687 44.0811 37.5008 43.7491 37.5009Z" fill="#FF9E00"/>
<path d="M41.2494 35.0008C35.7493 35.0008 24.999 22.5905 24.999 18.7504C25.4975 14.5215 27.4749 10.6049 30.5816 7.69274C31.1657 7.32406 31.938 7.49867 32.3066 8.08275C32.6753 8.66682 32.5007 9.4391 31.9166 9.80778C29.5431 12.2519 27.9977 15.3802 27.499 18.7504C27.499 20.9579 36.9342 32.5007 41.2493 32.5007C41.9397 32.5007 42.4994 33.0604 42.4994 33.7508C42.4995 34.4412 41.9398 35.0008 41.2494 35.0008Z" fill="#FF9E00"/>
<path d="M27.7669 14.8629C27.3557 14.8633 26.9705 14.6613 26.7369 14.3229L25.2194 12.1179C24.8476 11.5362 25.0176 10.7633 25.5993 10.3913C26.1529 10.0374 26.8859 10.1724 27.2771 10.7003L28.7946 12.9054C29.1867 13.4735 29.0439 14.2521 28.4758 14.6442C28.2674 14.788 28.0203 14.8651 27.767 14.8655V14.8629H27.7669Z" fill="#FF9E00"/>
</svg>
