<svg width="60" height="60" viewBox="0 0 60 60" fill="none" xmlns="http://www.w3.org/2000/svg">
<path d="M18.4244 18.0419V14.3613C13.0631 15.8153 7.8982 17.9135 3.04136 20.6102L2.13749 21.1092C0.471338 22.0357 -0.351332 23.977 0.141966 25.8188L3.1662 37.1311C5.80169 46.959 13.0641 54.8831 22.6235 58.3616L25.7417 59.5054C27.3662 60.0907 29.1323 60.1583 30.7969 59.6988L24.6399 36.7108C20.6077 31.3219 18.4275 24.773 18.4244 18.0419Z" fill="#40CFFF"/>
<path d="M22.5736 2.05147L21.5758 2.30124C19.7275 2.76677 18.4303 4.42785 18.4268 6.33515V18.0419C18.4293 28.2211 23.3947 37.7596 31.7306 43.5977L33.3104 44.6999L34.4437 45.5005C35.8419 46.4797 37.5075 47.0052 39.2143 47.0052V0C33.6043 0.000507632 28.0156 0.689408 22.5736 2.05147Z" fill="#FFC36E"/>
<path d="M56.8508 2.30124L55.8531 2.05147C50.411 0.689408 44.8229 0.000507632 39.2129 0V47.0052C40.9196 47.0052 42.5853 46.4797 43.9835 45.5005L46.6961 43.5977C55.0319 37.7596 59.9979 28.2211 60.0004 18.0419V6.33515C59.9969 4.42785 58.6997 2.76677 56.8508 2.30124Z" fill="#FF9E00"/>
<path d="M41.8439 36.2868L50.6446 29.0835L42.9305 30.4862C40.4711 30.9344 37.9513 30.9344 35.4924 30.4862L27.7783 29.0835L36.5785 36.2868C38.1102 37.5402 40.3127 37.5402 41.8439 36.2868Z" fill="white"/>
<path d="M30.5841 42.7443L30.3984 42.6102L29.9827 42.8077C27.7243 43.8794 25.2913 44.5343 22.8005 44.7414L14.9844 45.3755L25.3472 50.0541C27.1519 50.8755 29.2854 50.3049 30.44 48.692L33.3064 44.7028L31.7276 43.5946C31.3337 43.3276 30.9587 43.0331 30.5841 42.7443Z" fill="white"/>
<path d="M35.3576 18.3819L36.7751 16.8599C33.5255 13.617 28.2652 13.617 25.0156 16.8599L24.9639 16.9117L26.4854 18.3301C27.6638 17.1508 29.2655 16.4924 30.9322 16.502C32.5993 16.5122 34.1929 17.1889 35.3576 18.3819Z" fill="white"/>
<path d="M41.6465 16.8599L41.5947 16.9117L43.1162 18.3301C44.2947 17.1508 45.8964 16.4924 47.563 16.502C49.2302 16.5122 50.8238 17.1889 51.9885 18.3819L53.406 16.8599C50.1564 13.617 44.8961 13.617 41.6465 16.8599Z" fill="white"/>
<path d="M13.777 33.4506C15.402 33.0145 17.1341 33.2536 18.58 34.1136L19.5489 32.2723C15.572 29.9756 10.4868 31.3382 8.19033 35.3157L8.1543 35.3792L9.05309 35.899L9.98843 36.3544C10.8126 34.9187 12.1768 33.8729 13.777 33.4506Z" fill="white"/>
<path d="M41.9282 46.5299C39.413 47.4067 36.6298 47.0234 34.445 45.4994L31.7288 43.5946C29.0162 41.6919 26.6248 39.3678 24.6445 36.7107L30.7935 59.6988C32.4221 59.2551 33.8766 58.3245 34.9617 57.0305L37.0922 54.4835C39.1024 52.0985 40.7361 49.4196 41.9358 46.5401L41.9282 46.5299Z" fill="#28BCFF"/>
<path d="M41.8458 36.2869L50.6465 29.0836L42.9324 30.4863C40.473 30.9346 37.9533 30.9346 35.4944 30.4863L27.7803 29.0836L36.5805 36.2869C38.1121 37.5403 40.3147 37.5403 41.8458 36.2869Z" fill="white"/>
<path d="M30.5851 42.7444L30.3994 42.6104L29.9837 42.8078C27.7253 43.8795 25.2923 44.5344 22.8015 44.7415L14.9854 45.3756L25.3481 50.0542C27.1528 50.8756 29.2864 50.305 30.441 48.6922L33.3074 44.7029L31.7285 43.5947C31.3347 43.3277 30.9597 43.0332 30.5851 42.7444Z" fill="white"/>
</svg>
