<svg width="60" height="60" viewBox="0 0 60 60" fill="none" xmlns="http://www.w3.org/2000/svg">
<g clip-path="url(#clip0)">
<path d="M37.0317 3.69092C35.908 3.56752 34.7738 3.49674 33.6191 3.54045C24.6174 3.86494 16.7313 9.21377 12.3523 14.113L12.3506 38.3254L13.8783 38.4988C18.484 39.024 21.6717 40.4883 23.3556 42.8537C25.2164 45.4682 24.7204 48.534 24.5247 49.4129C23.8728 52.3323 25.5941 55.3044 28.5432 55.8724C30.2101 56.1917 31.8855 56.3496 33.5488 56.3496C34.7202 56.3496 35.8801 56.2434 37.0318 56.0898C50.0532 54.352 60.1075 43.2747 60.0002 29.7888C59.8826 15.4486 48.2978 4.92711 37.0317 3.69092Z" fill="#FFC36E"/>
<path d="M59.9987 29.7889C59.8812 15.4486 48.2964 4.92711 37.0303 3.69092V56.0899C50.0516 54.352 60.1059 43.2748 59.9987 29.7889Z" fill="#FF9E00"/>
<path d="M39.7288 23.7877C37.674 21.7296 37.674 18.3839 39.727 16.3274C41.7869 14.2709 45.1308 14.2709 47.1873 16.3274C49.2438 18.3839 49.2438 21.7296 47.1873 23.7859V23.7877C45.1312 25.8406 41.7854 25.8408 39.7288 23.7877Z" fill="#40CFFF"/>
<path d="M24.7828 17.7796C24.0346 15.0008 25.6665 12.084 28.5112 11.3235C31.3126 10.5734 34.2154 12.2419 34.9689 15.0519C35.724 17.8629 34.0581 20.7554 31.2406 21.5096C28.4167 22.2664 25.5344 20.591 24.7828 17.7796Z" fill="#676767"/>
<path d="M18.5674 31.4541C15.7574 30.7005 14.0854 27.8029 14.8389 24.9963C15.5877 22.1955 18.4669 20.5082 21.295 21.2679C24.1118 22.021 25.7819 24.9087 25.0252 27.7257C24.2689 30.5515 21.3709 32.2051 18.5674 31.4541Z" fill="#FF6543"/>
<path d="M45.7339 38.7323C42.9245 37.9803 41.2473 35.0968 42.0055 32.2745C42.7614 29.4508 45.6599 27.794 48.4633 28.5461C51.2733 29.2998 52.9453 32.1973 52.1917 35.0039C51.4386 37.8209 48.544 39.4881 45.7339 38.7323Z" fill="#C0DC4F"/>
<path d="M10.664 0.000488281C6.30561 0.000488281 5.39062 16.3687 5.39062 30.0001C5.39062 30.6127 5.39836 31.1749 5.40305 31.7579L9.12581 33.5157H10.664H13.1541L15.9257 31.7579C15.9301 31.1746 15.9373 30.6226 15.9373 30.0001C15.9373 16.3685 15.0224 0.000488281 10.664 0.000488281Z" fill="#40CFFF"/>
<path d="M15.9258 31.7579C15.9302 31.1746 15.9374 30.6226 15.9374 30.0001C15.9374 16.3687 15.0224 0.000488281 10.6641 0.000488281V33.5157H13.1541L15.9258 31.7579Z" fill="#28BCFF"/>
<path d="M10.6643 31.7579H5.40332C5.46613 39.5313 5.91167 44.6379 5.93675 45.1079H10.6643H15.3918C15.438 44.2496 15.8679 39.868 15.926 31.7579H10.6643Z" fill="white"/>
<path d="M15.9258 31.7579H10.6641V45.1079H15.3916C15.4376 44.2495 15.8677 39.8679 15.9258 31.7579Z" fill="#FFCCB3"/>
<path d="M10.6639 42.3047C6.78612 42.3047 3.63276 45.458 3.63276 49.3358V52.8514C3.63276 54.7894 1.93802 56.4842 0 56.4842V59.9997H7.14834C8.38711 59.9997 9.55885 59.7459 10.6639 59.3519C14.7473 57.896 17.6951 53.9129 17.6951 49.3358C17.6951 45.458 14.5417 42.3047 10.6639 42.3047Z" fill="#676767"/>
<path d="M17.6952 49.3358C17.6952 45.458 14.5419 42.3047 10.6641 42.3047V59.352C14.7474 57.896 17.6952 53.9129 17.6952 49.3358Z" fill="#575757"/>
<path d="M37.0312 49.3358C39.9436 49.3358 42.3045 46.9748 42.3045 44.0624C42.3045 41.15 39.9436 38.7891 37.0312 38.7891C34.1188 38.7891 31.7578 41.15 31.7578 44.0624C31.7578 46.9748 34.1188 49.3358 37.0312 49.3358Z" fill="white"/>
<path d="M42.3036 44.0624C42.3036 41.15 39.9427 38.7891 37.0303 38.7891V49.3358C39.9427 49.3358 42.3036 46.9748 42.3036 44.0624Z" fill="#FFE6CC"/>
</g>
<defs>
<clipPath id="clip0">
<rect width="60" height="60" fill="white"/>
</clipPath>
</defs>
</svg>
