<svg width="60" height="60" viewBox="0 0 60 60" fill="none" xmlns="http://www.w3.org/2000/svg">
<g clip-path="url(#clip0)">
<path d="M45.1405 3.45703C37.0367 3.45703 30.4678 7.74078 30.4678 16.0048C30.4678 24.2688 37.0367 30.9668 45.1405 30.9668C53.2433 30.9668 59.8118 24.2688 59.8118 16.0048C59.8118 7.74078 53.2433 3.45703 45.1405 3.45703Z" fill="#FFCEBF"/>
<path d="M33.365 16.0048C33.365 8.23932 39.1653 1.85672 46.5888 1.11514C46.1123 1.06708 45.6294 1.04236 45.1405 1.04236C37.0367 1.04236 30.4678 7.74081 30.4678 16.0048C30.4678 24.2688 37.0367 30.9668 45.1405 30.9668C45.6294 30.9668 46.1123 30.9421 46.5888 30.8945C39.1653 30.1525 33.365 23.7699 33.365 16.0048Z" fill="#FFB09E"/>
<path d="M52.9611 19.1418C52.4608 19.1418 52.0557 18.7367 52.0557 18.2363V16.7156C52.0557 16.2158 52.4608 15.8102 52.9611 15.8102C53.4615 15.8102 53.8666 16.2158 53.8666 16.7156V18.2363C53.8666 18.7367 53.4615 19.1418 52.9611 19.1418Z" fill="#575757"/>
<path d="M53.9969 21.3771H51.926C51.4256 21.3771 51.0205 20.9715 51.0205 20.4716C51.0205 19.9717 51.4256 19.5662 51.926 19.5662H53.9969C54.4972 19.5662 54.9023 19.9717 54.9023 20.4716C54.9023 20.9715 54.4972 21.3771 53.9969 21.3771Z" fill="#F98084" fill-opacity="0.5"/>
<path d="M37.3185 19.1418C36.8182 19.1418 36.4131 18.7367 36.4131 18.2363V16.7156C36.4131 16.2158 36.8182 15.8102 37.3185 15.8102C37.8189 15.8102 38.224 16.2158 38.224 16.7156V18.2363C38.224 18.7367 37.8189 19.1418 37.3185 19.1418Z" fill="#575757"/>
<path d="M38.3543 21.3771H36.2834C35.7831 21.3771 35.3779 20.9715 35.3779 20.4716C35.3779 19.9717 35.7831 19.5662 36.2834 19.5662H38.3543C38.8546 19.5662 39.2598 19.9717 39.2598 20.4716C39.2598 20.9715 38.8546 21.3771 38.3543 21.3771Z" fill="#F98084" fill-opacity="0.5"/>
<path d="M45.14 21.2911C44.3335 21.2911 43.5754 20.9528 43.0595 20.3627C42.7304 19.986 42.7693 19.4142 43.1456 19.0851C43.5223 18.756 44.0941 18.7944 44.4232 19.1712C44.5949 19.3675 44.8562 19.4802 45.14 19.4802C45.4239 19.4802 45.6857 19.3675 45.8574 19.1707C46.1865 18.7944 46.7582 18.756 47.135 19.0851C47.5117 19.4142 47.5502 19.9864 47.2206 20.3627C46.7051 20.9528 45.9466 21.2911 45.14 21.2911Z" fill="#575757"/>
<path d="M59.1096 11.4198C58.1021 -0.846406 53.1559 1.04233 45.1405 1.04233C39.0806 1.04233 36.1706 0.43579 34.931 0.04898C34.4352 -0.106202 33.9015 0.117187 33.6657 0.579986C32.676 2.52228 30.4678 7.77649 30.4678 16.0048C30.4678 16.0048 33.977 9.68536 45.14 9.68536C50.3333 9.68536 49.8989 11.4198 59.1096 11.4198Z" fill="#C86D5C"/>
<path d="M36.5634 0.579986C36.5862 0.535125 36.6123 0.493011 36.6407 0.453185C35.8753 0.313567 35.3205 0.170287 34.931 0.04898C34.4352 -0.106202 33.9015 0.117187 33.6657 0.579986C32.676 2.52228 30.4678 7.77649 30.4678 16.0048C30.4678 16.0048 31.3078 14.4937 33.4702 12.9497C33.9193 6.4682 35.7018 2.26959 36.5634 0.579986Z" fill="#AD4F3D"/>
<path d="M0.362305 44.458V54.1035C0.362305 56.5063 2.1691 58.5255 4.55771 58.791L11.4905 59.5624L0.362305 44.458Z" fill="#575757"/>
<path d="M29.6844 44.458V54.1035C29.6844 56.5063 27.8781 58.5255 25.4895 58.791L18.5566 59.5624L29.6844 44.458Z" fill="#575757"/>
<path d="M29.6846 44.4581C29.6837 44.4594 29.6837 44.4594 29.6837 44.4594L14.6979 33.1302L0.363464 44.4594L0.362091 44.4581C0.355225 44.6508 0.351562 44.843 0.351562 45.0371C0.351562 53.3011 6.92001 60.0001 15.0233 60.0001C23.1271 60.0001 29.6956 53.3011 29.6956 45.0371C29.6956 44.8435 29.6919 44.6508 29.6846 44.4581Z" fill="#FFCEBF"/>
<path d="M2.78915 43.9814C1.99677 44.203 1.18607 44.3683 0.363464 44.4594L0.362091 44.458C0.355225 44.6507 0.351562 44.843 0.351562 45.037C0.351562 53.3011 6.92001 60 15.0233 60C15.4422 60 15.8565 59.9812 16.2662 59.946C8.97995 59.2804 3.1929 52.4606 2.78915 43.9814Z" fill="#FFB09E"/>
<path d="M7.20233 48.1741C6.70245 48.1741 6.29688 47.769 6.29688 47.2687V45.748C6.29688 45.2481 6.70245 44.8425 7.20233 44.8425C7.70267 44.8425 8.10779 45.2481 8.10779 45.748V47.2687C8.10779 47.769 7.70267 48.1741 7.20233 48.1741Z" fill="#575757"/>
<path d="M8.2381 50.4094H6.16718C5.66684 50.4094 5.26172 50.0043 5.26172 49.504C5.26172 49.0041 5.66684 48.5985 6.16718 48.5985H8.2381C8.73843 48.5985 9.14355 49.0041 9.14355 49.504C9.14355 50.0043 8.73843 50.4094 8.2381 50.4094Z" fill="#F98084" fill-opacity="0.5"/>
<path d="M22.8449 48.1741C22.345 48.1741 21.9395 47.769 21.9395 47.2687V45.748C21.9395 45.2481 22.345 44.8425 22.8449 44.8425C23.3452 44.8425 23.7504 45.2481 23.7504 45.748V47.2687C23.7504 47.769 23.3452 48.1741 22.8449 48.1741Z" fill="#575757"/>
<path d="M23.8797 50.4094H21.8088C21.3084 50.4094 20.9033 50.0043 20.9033 49.504C20.9033 49.0041 21.3084 48.5985 21.8088 48.5985H23.8797C24.38 48.5985 24.7852 49.0041 24.7852 49.504C24.7852 50.0043 24.38 50.4094 23.8797 50.4094Z" fill="#F98084" fill-opacity="0.5"/>
<path d="M15.0238 50.3237C14.2173 50.3237 13.4592 49.9854 12.9433 49.3949C12.6142 49.0186 12.6531 48.4464 13.0294 48.1173C13.4056 47.7886 13.9778 47.8271 14.307 48.2034C14.4786 48.4002 14.74 48.5128 15.0238 48.5128C15.3077 48.5128 15.5695 48.4002 15.7412 48.2034C16.0703 47.8271 16.6425 47.7886 17.0188 48.1178C17.3955 48.4469 17.434 49.0186 17.1048 49.3954C16.5889 49.9854 15.8304 50.3237 15.0238 50.3237Z" fill="#575757"/>
<path d="M0.362305 44.458L0.363678 44.4594C8.23813 43.5883 15.0236 35.9825 15.0236 35.9825C15.0236 35.9825 21.8094 43.5883 29.6839 44.4594C29.6839 44.4594 29.6839 44.4594 29.6848 44.458C29.3868 36.4627 22.9374 30.0751 15.0236 30.0751C7.1102 30.0751 0.660767 36.4627 0.362305 44.458Z" fill="#575757"/>
<path d="M16.2916 30.1314C15.8736 30.0948 15.4511 30.0751 15.0236 30.0751C7.1102 30.0751 0.660767 36.4627 0.362305 44.4585L0.363678 44.4594C1.23389 44.3633 1.95349 44.2227 2.78937 43.9815C3.30893 36.6563 9.13443 30.7558 16.2916 30.1314Z" fill="#323E40"/>
<path d="M24.11 20.3952V11.3512C24.11 8.1203 21.4911 5.50098 18.2597 5.50098H6.20178C2.97089 5.50098 0.351562 8.1203 0.351562 11.3512V19.6161C0.351562 22.847 2.97089 25.4659 6.20178 25.4659H26.9119L24.11 20.3952Z" fill="#40CFFF"/>
<path d="M18.5454 12.2566H5.91522C5.41534 12.2566 5.00977 11.851 5.00977 11.3511C5.00977 10.8508 5.41534 10.4457 5.91522 10.4457H18.5454C19.0457 10.4457 19.4508 10.8508 19.4508 11.3511C19.4508 11.851 19.0457 12.2566 18.5454 12.2566Z" fill="white"/>
<path d="M18.5454 16.3888H5.91522C5.41534 16.3888 5.00977 15.9837 5.00977 15.4833C5.00977 14.9835 5.41534 14.5779 5.91522 14.5779H18.5454C19.0457 14.5779 19.4508 14.9835 19.4508 15.4833C19.4508 15.9837 19.0457 16.3888 18.5454 16.3888Z" fill="white"/>
<path d="M13.792 20.5215H5.91522C5.41534 20.5215 5.00977 20.1159 5.00977 19.616C5.00977 19.1157 5.41534 18.7106 5.91522 18.7106H13.792C14.2918 18.7106 14.6974 19.1157 14.6974 19.616C14.6974 20.1159 14.2918 20.5215 13.792 20.5215Z" fill="white"/>
<path d="M36.0539 49.9493V40.9048C36.0539 37.6739 38.6732 35.0551 41.9041 35.0551H53.9621C57.193 35.0551 59.8123 37.6739 59.8123 40.9048V49.1697C59.8123 52.4006 57.193 55.02 53.9621 55.02H33.252L36.0539 49.9493Z" fill="#FF9E00"/>
<path d="M54.2475 41.8108H41.6174C41.117 41.8108 40.7119 41.4052 40.7119 40.9053C40.7119 40.405 41.117 39.9999 41.6174 39.9999H54.2475C54.7479 39.9999 55.153 40.405 55.153 40.9053C55.153 41.4052 54.7474 41.8108 54.2475 41.8108Z" fill="white"/>
<path d="M54.2475 45.943H41.6174C41.117 45.943 40.7119 45.5374 40.7119 45.0375C40.7119 44.5377 41.117 44.1321 41.6174 44.1321H54.2475C54.7479 44.1321 55.153 44.5377 55.153 45.0375C55.153 45.5374 54.7474 45.943 54.2475 45.943Z" fill="white"/>
<path d="M54.248 50.0757H46.3713C45.8714 50.0757 45.4658 49.6701 45.4658 49.1702C45.4658 48.6699 45.8714 48.2648 46.3713 48.2648H54.248C54.7479 48.2648 55.1535 48.6699 55.1535 49.1702C55.1535 49.6701 54.7479 50.0757 54.248 50.0757Z" fill="white"/>
</g>
<defs>
<clipPath id="clip0">
<rect width="60" height="60" fill="white"/>
</clipPath>
</defs>
</svg>
