<svg width="60" height="60" viewBox="0 0 60 60" fill="none" xmlns="http://www.w3.org/2000/svg">
<g clip-path="url(#clip0)">
<path d="M30.0007 41.7132L41.1399 33.6196L51.2832 36.9769L53.9156 48.1173C53.0921 49.1999 52.1915 50.235 51.2133 51.2133C47.9383 54.4882 44.0389 56.9107 39.7842 58.3738L30 52.3464L30.0007 41.7132Z" fill="#F6F9F9"/>
<path d="M29.9999 41.7133L18.8599 33.6196L23.1151 20.5239H36.8846L41.1398 33.6196L29.9999 41.7133Z" fill="#676767"/>
<path d="M18.8598 33.6196L29.9997 41.7132V52.3463L20.2362 58.3808C15.9736 56.9184 12.0668 54.4935 8.78653 51.2132C7.81603 50.2427 6.92225 49.2163 6.104 48.1433L8.72554 36.8984L18.8598 33.6196Z" fill="#F6F9F9"/>
<path d="M39.784 58.3736C36.6774 59.442 33.3818 59.9999 29.9998 59.9999C26.6255 59.9999 23.3369 59.4445 20.2363 58.3808L29.9998 52.3462L39.784 58.3736Z" fill="#676767"/>
<path d="M23.1153 20.524L18.8602 33.6196L8.72586 36.8985L0.00830078 29.3248C0.140492 23.3018 2.0382 17.574 5.45593 12.7368L16.9218 11.8782L23.1153 20.524Z" fill="#ECECEF"/>
<path d="M36.8849 20.5238H23.1154L16.9219 11.8781L21.2853 1.2791C24.0748 0.43657 27.0039 0 30.0002 0C33.0001 0 35.9327 0.437508 38.7254 1.28203L43.1665 11.9219L36.8849 20.5238Z" fill="#F6F9F9"/>
<path d="M51.2831 36.9769L41.1399 33.6196L36.8848 20.5239L43.1662 11.9221L54.5768 12.7831C57.9856 17.6271 59.8724 23.3603 59.9925 29.3867L51.2831 36.9769Z" fill="#ECECEF"/>
<path d="M6.10424 48.1433C2.14508 42.9512 0 36.641 0 30.0001C0 29.7745 0.00328425 29.5494 0.00821061 29.3247L8.72577 36.8984L6.10424 48.1433Z" fill="#676767"/>
<path d="M5.45605 12.7367C6.44203 11.3413 7.5541 10.0197 8.78698 8.78684C12.3346 5.23927 16.6143 2.68987 21.2853 1.27905L16.9218 11.878L5.45605 12.7367Z" fill="#676767"/>
<path d="M54.5767 12.7832L43.1662 11.9222L38.7251 1.28223C43.3921 2.69363 47.6681 5.24197 51.2131 8.78696C52.4597 10.0336 53.5827 11.3706 54.5767 12.7832Z" fill="#676767"/>
<path d="M59.9926 29.3867C59.9967 29.5909 60.0001 29.7953 60.0001 30.0002C60.0001 36.6299 57.8621 42.9303 53.9156 48.1174L51.2832 36.977L59.9926 29.3867Z" fill="#676767"/>
<path d="M30.0007 41.7132L41.1399 33.6196L51.2832 36.9769L53.9156 48.1173C53.0921 49.1999 52.1915 50.235 51.2133 51.2133C47.9383 54.4882 44.0389 56.9107 39.7842 58.3738L30 52.3464L30.0007 41.7132Z" fill="#ECECEF"/>
<path d="M51.2831 36.9769L41.1399 33.6196L36.8848 20.5239L43.1662 11.9221L54.5768 12.7831C57.9856 17.6271 59.8724 23.3603 59.9925 29.3867L51.2831 36.9769Z" fill="#DDDDDF"/>
<path d="M54.5767 12.7829L43.1662 11.922L38.7251 1.28198C43.3921 2.69339 47.6681 5.24173 51.2131 8.78672C52.4597 10.0333 53.5827 11.3704 54.5767 12.7829Z" fill="#575757"/>
<path d="M59.9926 29.3867C59.9967 29.5909 60.0001 29.7953 60.0001 30.0002C60.0001 36.6299 57.8621 42.9303 53.9156 48.1174L51.2832 36.977L59.9926 29.3867Z" fill="#575757"/>
<path d="M30 59.9999C33.3818 59.9999 36.6775 59.442 39.7842 58.3736L30 52.3462V59.9999Z" fill="#575757"/>
<path d="M43.1663 11.922L38.7252 1.28203C35.9325 0.437508 32.9999 0 30 0V20.5238H36.8848L43.1663 11.922Z" fill="#ECECEF"/>
<path d="M36.8847 20.5239H30V41.7133L41.1399 33.6196L36.8847 20.5239Z" fill="#575757"/>
</g>
<defs>
<clipPath id="clip0">
<rect width="60" height="60" fill="white"/>
</clipPath>
</defs>
</svg>
