<svg width="60" height="60" viewBox="0 0 60 60" fill="none" xmlns="http://www.w3.org/2000/svg">
<g clip-path="url(#clip0)">
<path d="M59.8944 31.7577C59.543 38.0505 57.2228 43.9335 53.5663 48.5741C53.3202 48.8906 49.5936 45.656 49.3475 45.9374C48.8203 46.5702 51.8085 50.6834 51.2461 51.246C46.2188 56.2733 39.2812 59.4724 31.7578 59.8943C31.1603 59.8943 30.5975 56.4843 30 56.4843C29.4025 56.4843 28.8397 59.8943 28.2422 59.8943C20.7188 59.4724 13.7811 56.2733 8.75391 51.246C8.40234 50.8943 11.6016 47.0272 11.25 46.6405C10.8281 46.1483 6.85547 49.1365 6.43359 48.5741C2.77723 43.9335 0.457031 38.0505 0.105469 31.7577C0.105469 31.1602 3.51551 30.5974 3.51551 29.9999C3.51551 29.4023 0.105469 28.8396 0.105469 28.2421C0.456914 21.9492 2.77711 16.0663 6.43359 11.4257C6.89062 10.8281 10.8633 13.781 11.3554 13.2539C11.6367 12.9374 8.43762 9.07031 8.75391 8.75379C13.7811 3.72644 20.7188 0.527344 28.2422 0.105469C28.8398 0.105469 29.4026 3.51551 30 3.51551C30.5975 3.51551 31.1603 0.105469 31.7578 0.105469C39.2812 0.527344 46.2189 3.72644 51.2461 8.75379C51.5624 9.07031 48.3633 12.9374 48.6445 13.2539C49.1366 13.8163 53.1093 10.8281 53.5663 11.4257C57.2227 16.0663 59.5429 21.9492 59.8944 28.2421C59.8944 28.8396 56.4844 29.4023 56.4844 29.9999C56.4844 30.5974 59.8944 31.1602 59.8944 31.7577Z" fill="#FF9E00"/>
<path d="M59.8944 31.7577C59.543 38.0505 57.2228 43.9335 53.5663 48.5741C53.3202 48.8906 49.5936 45.656 49.3475 45.9374C48.8203 46.5702 51.8085 50.6834 51.2461 51.246C46.2187 56.2733 39.2812 59.4724 31.7578 59.8943C31.1603 59.8943 30.5975 56.4843 30 56.4843V3.51551C30.5975 3.51551 31.1603 0.105469 31.7578 0.105469C39.2812 0.527344 46.2189 3.72644 51.2461 8.75379C51.5624 9.07031 48.3633 12.9374 48.6445 13.2539C49.1366 13.8163 53.1093 10.8281 53.5663 11.4257C57.2227 16.0663 59.5429 21.9492 59.8944 28.2421C59.8944 28.8396 56.4844 29.4023 56.4844 29.9999C56.4844 30.5974 59.8944 31.1602 59.8944 31.7577Z" fill="#FF9E00"/>
<path d="M59.8953 31.7578H46.0439C46.4658 38.2616 49.2782 44.2148 53.5673 48.5742C52.8291 49.5236 52.0555 50.4025 51.2471 51.2461C46.2197 46.2188 42.9502 39.3164 42.5284 31.7578H31.7587V59.8944C31.1611 59.9296 30.5984 60 30.0009 60C29.4033 60 28.8406 59.9296 28.243 59.8944V31.7578H17.4735C17.0516 39.3165 13.7821 46.2189 8.75488 51.2461C7.94641 50.4023 7.17285 49.5234 6.43469 48.5742C10.7236 44.2148 13.5361 38.2616 13.958 31.7578H0.106563C0.0714063 31.1603 0.000976562 30.5975 0.000976562 30C0.000976562 29.4025 0.0714063 28.8397 0.106563 28.2422H13.9579C13.536 21.7384 10.7236 15.7852 6.43457 11.4258C7.17273 10.4764 7.94629 9.59754 8.75477 8.75391C13.7821 13.7812 17.0516 20.6836 17.4734 28.2422H28.2432V0.105586C28.8407 0.0704297 29.4034 0 30.0009 0C30.5984 0 31.1611 0.0704297 31.7587 0.105586V28.2422H42.5283C42.9502 20.6835 46.2197 13.7811 51.247 8.75391C52.0554 9.59766 52.829 10.4766 53.5671 11.4258C49.2782 15.7852 46.4657 21.7384 46.0439 28.2422H59.8953C59.9304 28.8397 60.0009 29.4025 60.0009 30C60.0009 30.5975 59.9304 31.1603 59.8953 31.7578Z" fill="#C86D5C"/>
<path d="M59.8944 31.7578H46.0431C46.465 38.2616 49.2773 44.2148 53.5664 48.5742C52.8282 49.5236 52.0547 50.4025 51.2462 51.2461C46.2189 46.2188 42.9493 39.3164 42.5276 31.7578H31.7578V59.8944C31.1603 59.9296 30.5975 60 30 60V0C30.5975 0 31.1603 0.0704297 31.7578 0.105586V28.2422H42.5275C42.9493 20.6835 46.2189 13.7811 51.2461 8.75391C52.0546 9.59766 52.8281 10.4766 53.5663 11.4258C49.2773 15.7852 46.4648 21.7384 46.0431 28.2422H59.8944C59.9296 28.8397 60 29.4025 60 30C60 30.5975 59.9296 31.1603 59.8944 31.7578Z" fill="#AD4F3D"/>
</g>
<defs>
<clipPath id="clip0">
<rect width="60" height="60" fill="white"/>
</clipPath>
</defs>
</svg>
