<svg width="60" height="60" viewBox="0 0 60 60" fill="none" xmlns="http://www.w3.org/2000/svg">
<path d="M6.11182 30.3884C5.83599 29.7193 6.08433 29.0047 6.70399 28.6853L8.96488 27.5194C10.026 26.9719 11.1474 26.5225 12.3153 26.1765L12.5403 26.1099L12.5398 26.1094L14.9324 25.0145L26.1534 20.132C26.5269 19.9696 26.923 19.8681 27.3274 19.8315L37.8571 18.8798L39.4058 18.7621C41.7646 18.5832 43.9179 20.4082 44.2157 22.8389C44.5132 25.2693 42.8426 27.3847 40.484 27.5636C39.8494 27.6118 39.2083 27.5936 38.5706 27.5095L27.8166 26.0922C27.5885 26.0622 27.357 26.0738 27.133 26.1269L16.373 28.673L16.3332 28.6465C16.4227 29.006 16.3838 29.4072 16.1922 29.7704L15.9347 30.2582C15.4802 31.1197 14.5051 31.5988 13.4428 31.4828L9.85988 31.0909L7.94932 31.4116C7.19489 31.5386 6.40429 31.098 6.11182 30.3884Z" fill="#FFCEBF"/>
<path d="M41.3816 20.25H36.7961C34.4215 20.25 32.4967 22.1984 32.4967 24.6016V26.4757C32.4967 27.6437 32.9639 28.7622 33.7918 29.576L34.2386 30.0152C34.4103 30.184 34.5438 30.3853 34.6341 30.6045L34.6344 30.605C34.6564 30.6585 34.6758 30.7132 34.6926 30.7686L34.9551 31.5064C35.1275 31.9913 35.1523 32.5176 35.026 33.017L34.7715 34.0235C34.6844 34.3673 34.4505 34.654 34.1333 34.8056L32.4113 35.6274C30.9334 36.6661 30 38.3905 30 40.2914V41.2167C30.7207 43.9388 33.4851 45.5543 36.1746 44.8248C38.0451 44.3177 39.7404 43.2913 41.0522 41.8495C43.054 39.6495 45.4747 35.885 45.75 30.372V24.6712C45.7498 22.2297 43.7941 20.25 41.3816 20.25Z" fill="#40CFFF"/>
<path d="M29.8082 41.3814V40.3582C29.8082 39.8937 29.8619 39.4394 29.9586 39L29.6937 39.0712V39.719C29.6937 42.489 27.9474 44.8493 25.5 45.75L31.5 44.1355C30.7069 43.4277 30.1033 42.4877 29.8082 41.3814Z" fill="#FFCEBF"/>
<path d="M17.9537 40.0104H18.0185C18.0172 39.958 18.0146 39.9056 18.0146 39.8529V35.8971C18.0146 32.6403 20.5298 30 23.6323 30C26.7348 30 29.25 32.6403 29.25 35.8971V39.8529C29.25 43.1097 26.7348 45.75 23.6323 45.75C21.0704 45.75 18.9105 43.9492 18.2352 41.4881H17.9537C17.565 41.4881 17.25 41.1574 17.25 40.7494C17.25 40.3413 17.565 40.0104 17.9537 40.0104Z" fill="#FFCEBF"/>
<path d="M19.5 39.75C19.0858 39.75 18.75 39.4752 18.75 39.1363V38.1137C18.75 37.7748 19.0858 37.5 19.5 37.5C19.9142 37.5 20.25 37.7748 20.25 38.1137V39.1363C20.25 39.4752 19.9142 39.75 19.5 39.75Z" fill="#DA9686"/>
<path d="M27 58.7905C27 59.0443 27.2013 59.25 27.4498 59.25H28.8123H32.0085H35.5549H35.8439C36.1307 59.25 36.4015 59.1158 36.5788 58.8856L36.8755 58.5008C37.1335 58.1661 37.2093 57.7213 37.0778 57.3172L36.6483 55.9993C36.603 55.86 36.5841 55.7129 36.5929 55.5664L37.4944 40.6225C37.5966 38.9299 36.2804 37.5 34.6207 37.5C32.9818 37.5 31.6735 38.8956 31.744 40.5682L32.3932 55.9409C32.3987 56.0754 32.3219 56.1995 32.2003 56.2516L27.2754 58.367C27.1085 58.4385 27 58.6056 27 58.7905Z" fill="#FFCEBF"/>
<path d="M24 36H17.0284C16.7366 36 16.5 35.7537 16.5 35.4498V33.5018C16.5 30.7393 18.6507 28.5 21.3039 28.5H23.0702C23.5838 28.5 24 28.9333 24 29.4681V36Z" fill="#575757"/>
<path d="M25.5333 29.3219C24.1934 29.0126 24.0212 29.7913 24 29.9513V40.2743C24 41.4191 24.2338 42.5545 24.6901 43.6274L27.9314 44.2208C28.447 44.3153 28.9824 44.1771 29.3572 43.853L29.7992 43.4706C30.8618 42.5519 31.4944 41.306 31.5 39.9984C31.5 39.9897 31.5 39.981 31.5 39.9723V36.1059C31.5003 32.8555 28.9638 30.1156 25.5333 29.3219Z" fill="#4671C6"/>
<path d="M53.2237 10.3499C52.5266 9.47042 51.616 8.7875 50.5803 8.36788L40.1682 4.14813L37.6958 3.19945V3.20019L37.4889 3.08535C36.4139 2.48929 35.2997 1.99949 34.16 1.62232L31.7318 0.818423C31.0665 0.598062 30.3893 0.923942 30.118 1.59484C29.8298 2.30647 30.0854 3.18669 30.712 3.63993L32.2989 4.78836L34.5797 7.64348C35.2559 8.48984 36.2864 8.85326 37.2136 8.57204L37.7386 8.41303C38.1293 8.29451 38.4382 8.03905 38.6256 7.72103L38.6354 7.76839L45.6671 12.1903C45.866 12.3155 45.8718 12.6058 45.6778 12.7388L37.164 18.5788C36.6264 18.9477 36.1362 19.3737 35.7012 19.8505C34.0844 21.6227 34.4464 24.536 36.5099 26.3575C38.5736 28.1788 41.5574 28.2188 43.1744 26.4463L44.2361 25.2827L51.7507 16.7777L51.7482 16.7755L53.2765 14.7483C54.2606 13.4435 54.2387 11.6304 53.2237 10.3499Z" fill="#FFCEBF"/>
<path d="M25.5333 29.3219C24.1934 29.0126 24.0212 29.7913 24 29.9513V40.2743C24 41.4191 24.2338 42.5545 24.6901 43.6274L27.9314 44.2208C28.447 44.3153 28.9824 44.1771 29.3572 43.853L29.7992 43.4706C30.8618 42.5519 31.4944 41.306 31.5 39.9984C31.5 39.9897 31.5 39.981 31.5 39.9723V36.1059C31.5003 32.8555 28.9638 30.1156 25.5333 29.3219Z" fill="#575757"/>
<path d="M24 41.25C25.2426 41.25 26.25 40.4105 26.25 39.375C26.25 38.3395 25.2426 37.5 24 37.5C22.7574 37.5 21.75 38.3395 21.75 39.375C21.75 40.4105 22.7574 41.25 24 41.25Z" fill="#FFCEBF"/>
<path fill-rule="evenodd" clip-rule="evenodd" d="M50.3992 48.5157C51.6395 48.4322 52.7123 49.3703 52.7957 50.6105C52.8785 51.8508 51.941 52.9235 50.7008 53.007C49.4605 53.0904 48.3878 52.1523 48.3043 50.9121C48.2209 49.6718 49.159 48.5991 50.3986 48.5163L50.3992 48.5157Z" fill="#FF9E00"/>
<path fill-rule="evenodd" clip-rule="evenodd" d="M14.7428 8.09227C15.469 8.75643 15.8502 9.5695 15.8877 10.5302C15.8877 11.7122 15.5433 12.6263 14.8546 13.2732C14.1666 13.9201 13.2823 14.2611 12.2023 14.2984C11.2343 14.2984 10.4062 13.938 9.71749 13.218C9.02878 12.4974 8.68511 11.657 8.68511 10.697C8.68511 9.73637 9.02878 8.89604 9.71749 8.17604C10.4062 7.45604 11.2343 7.0957 12.2023 7.0957C13.1704 7.0957 14.0172 7.42878 14.7428 8.0936V8.09227Z" fill="#FF9E00"/>
</svg>
