<svg width="60" height="60" viewBox="0 0 60 60" fill="none" xmlns="http://www.w3.org/2000/svg">
<path d="M48.9967 51.4846L58.5 50.0119L57.7912 44.1818L53.9253 12.3719C53.5608 9.37245 52.1196 6.61101 49.8734 4.60829C47.6272 2.60557 44.7313 1.49997 41.7317 1.5H18.2683C15.2687 1.49997 12.3728 2.60557 10.1266 4.60829C7.8804 6.61101 6.43919 9.37245 6.07474 12.3719L2.20881 44.1818L1.5 50.0119L11.0033 51.4846H48.9967Z" fill="#F4F4F4"/>
<path d="M45.3467 51.4846L58.5005 49.4837L57.7707 43.5923L45.3467 45.4819V51.4846Z" fill="#DDEAFB"/>
<path d="M14.6538 51.4846L1.5 49.4837L2.22979 43.5923L14.6538 45.4819V51.4846Z" fill="#DDEAFB"/>
<path d="M11.3552 17.2847L13.3179 36.911V40.8363L9.39258 58.5H50.608L46.6827 40.8363V36.911L48.6453 17.2847H11.3552Z" fill="#F4F4F4"/>
<path d="M30.0008 42.7154L35.7008 41.7289V35.8097L30.0008 34.8231L24.3008 35.8097V41.7289L30.0008 42.7154Z" fill="#676767"/>
<path d="M29.5623 42.7154V34.8231L24.3008 35.8097V41.7289L29.5623 42.7154Z" fill="#575757"/>
<path d="M12.8994 36.5769H24.2994V40.9615H12.8994V36.5769Z" fill="#676767"/>
<path d="M24.3008 37.4539H29.5623V40.0846H24.3008V37.4539Z" fill="#676767"/>
<path d="M20.3544 40.9615L16.4082 50.6077H20.3544L24.3005 40.9615H20.3544Z" fill="#575757"/>
<path d="M39.6454 40.9615L43.5915 50.6077H39.6454L35.6992 40.9615H39.6454Z" fill="#676767"/>
<path d="M35.6992 36.5769H47.0992V40.9615H35.6992V36.5769Z" fill="#575757"/>
<path d="M23.4229 1.5L27.1811 24.3H32.8185L36.5767 1.5H23.4229Z" fill="#DDEAFB"/>
<path d="M24.7381 22.5462L20.792 1.5H24.7381L28.6843 22.5462H24.7381Z" fill="#575757"/>
<path d="M35.2616 22.5462L39.2077 1.5H35.2616L31.3154 22.5462H35.2616Z" fill="#575757"/>
<path d="M25.1768 22.5461H34.8229V26.0538H25.1768V22.5461Z" fill="#676767"/>
<path d="M48.9963 51.1156C48.7419 51.1721 48.4755 51.1252 48.2556 50.9853C48.0357 50.8454 47.8805 50.6238 47.8239 50.3694L45.747 41.0236C45.7315 40.9536 45.7236 40.8822 45.7236 40.8105V36.8794C45.7236 36.8469 45.7253 36.8144 45.7285 36.782L47.5958 18.1047C47.6086 17.9762 47.6466 17.8515 47.7076 17.7377C47.7686 17.6239 47.8515 17.5233 47.9514 17.4415C48.0513 17.3597 48.1664 17.2985 48.29 17.2612C48.4137 17.2239 48.5434 17.2114 48.6719 17.2243C48.9312 17.2502 49.1697 17.3781 49.3347 17.5798C49.4997 17.7816 49.5779 18.0406 49.552 18.2999L47.6892 36.9286V40.7029L49.7426 49.9433C49.7706 50.0693 49.7735 50.1995 49.7512 50.3266C49.7288 50.4538 49.6816 50.5752 49.6123 50.6841C49.543 50.793 49.453 50.8872 49.3473 50.9612C49.2416 51.0353 49.1223 51.0878 48.9963 51.1158V51.1156Z" fill="#DDEAFB"/>
<path d="M11.0031 51.1171C10.8771 51.0891 10.7578 51.0366 10.6521 50.9625C10.5464 50.8885 10.4564 50.7943 10.3871 50.6854C10.3178 50.5765 10.2706 50.4551 10.2483 50.328C10.2259 50.2008 10.2288 50.0706 10.2568 49.9446L12.3106 40.7026V36.9285L10.4478 18.2999C10.4219 18.0405 10.5001 17.7815 10.6651 17.5798C10.8301 17.3781 11.0685 17.2502 11.3279 17.2242C11.5872 17.1983 11.8462 17.2765 12.048 17.4415C12.2497 17.6065 12.3776 17.845 12.4035 18.1043L14.2708 36.7816C14.2742 36.8141 14.276 36.8467 14.2762 36.8794V40.8104C14.2761 40.8821 14.2683 40.9536 14.2528 41.0236L12.1755 50.3711C12.1189 50.6255 11.9636 50.847 11.7438 50.9869C11.5239 51.1268 11.2575 51.1736 11.0031 51.1171Z" fill="#DDEAFB"/>
</svg>
