<svg width="60" height="60" viewBox="0 0 60 60" fill="none" xmlns="http://www.w3.org/2000/svg">
<path d="M30 0H39V14.5L42 18.6429L45.4875 20.1907C46.53 20.6536 47.4185 21.4231 48.0429 22.4039C48.6672 23.3847 49 24.5337 49 25.7085C49 27.1627 48.4904 28.5675 47.5658 29.6618C43.9777 33.909 42 39.3607 42 45.0041C42 48.7694 41.0512 52.4696 39.2475 55.7388C38.8685 56.4258 38.3209 56.9968 37.6601 57.3939C36.9993 57.791 36.2489 58.0001 35.485 58H30V0Z" fill="#FFCEBF"/>
<path d="M31.741 58L32.9325 45.9534C33.0256 45.0127 33.0224 44.0592 32.9229 43.1198L31.5698 30.3529C31.5475 30.1426 31.5493 29.929 31.5753 29.7194L32.3048 23.8214V0H30V58H31.741Z" fill="#FFB09E"/>
<path d="M30 27.3103L38 36V30.6897L30 22V27.3103Z" fill="#40CFFF"/>
<path d="M31 21L39 14.0322V9L31 15.9678V21Z" fill="#40CFFF"/>
<path d="M39.247 55.7593C41.0509 52.5198 41.9999 48.8532 42 45.1219C42 39.5297 43.9777 34.1275 47.5659 29.919C48.1682 29.2125 48.599 28.3698 48.8232 27.4598C49.0474 26.5497 49.0585 25.5981 48.8558 24.6828C48.653 23.7674 48.2421 22.9143 47.6566 22.1932C47.071 21.472 46.3276 20.9033 45.4869 20.5336L42 19L37.025 34.3178C35.7034 38.3874 33.2638 41.9782 30 44.6579V58H35.4855C36.2493 57.9999 36.9994 57.7926 37.66 57.3991C38.3206 57.0056 38.8681 56.4399 39.247 55.7593Z" fill="#40CFFF"/>
<path d="M32.9225 43.2308L32.6844 41C31.8968 42.3459 30.9961 43.566 30 44.6362V58H31.7414L32.9329 46.0433C33.0257 45.1096 33.0222 44.1633 32.9225 43.2308Z" fill="#35ABD3"/>
<path d="M29.9991 29.6841L30.9497 24.2153C30.9985 23.9343 31.023 23.6499 31.023 23.365V0H19.1575V21.7241L17.4556 24.9884C17.156 25.563 17 26.1965 17 26.8389V43.4584C17 44.1396 17.0702 44.8191 17.2096 45.4871L19.8895 58.3368C19.9873 58.8057 20.2514 59.2276 20.637 59.5308C21.0226 59.8341 21.5058 59.9998 22.0044 60H28.0556C28.5784 60 29.0835 59.818 29.4768 59.4877C29.8702 59.1575 30.1252 58.7015 30.1943 58.2045L31.9052 45.8987C32.036 44.9592 32.0314 44.0068 31.8917 43.0685L29.9921 30.3169C29.9607 30.1069 29.963 29.8935 29.9991 29.6841Z" fill="#FFCEBF"/>
<path d="M19.7096 56.3923C19.8013 56.8456 20.0492 57.2536 20.411 57.5467C20.7728 57.8398 21.2261 58 21.6939 58H27.3698C27.8602 58 28.3339 57.824 28.7029 57.5048C29.0718 57.1855 29.3109 56.7447 29.3757 56.2643L30.9807 44.3688C30.9939 44.2688 30.9896 44.1687 31 44.0687C30.9856 43.9236 30.9885 43.7774 30.9676 43.6328L30.1581 38.028L28.1262 42.675C27.8298 43.3586 27.3387 43.9423 26.7128 44.3551C26.0868 44.7678 25.3529 44.9919 24.6004 45C23.848 45.0081 23.1093 44.7998 22.4744 44.4006C21.8395 44.0013 21.3357 43.4283 21.0244 42.7513L17 34V42.0098C17 42.6683 17.0659 43.3252 17.1966 43.9709L19.7096 56.3923Z" fill="#FFCEBF"/>
<path d="M30.2609 29.5351L31 25.3343L19 15V20.3069L30.2563 30C30.2397 29.8454 30.2413 29.6894 30.2609 29.5351Z" fill="#40CFFF"/>
<path d="M18 6H31V11H18V6Z" fill="#40CFFF"/>
<path d="M24 8.5C24 7.11929 22.8807 6 21.5 6C20.1193 6 19 7.11929 19 8.5C19 9.88071 20.1193 11 21.5 11C22.8807 11 24 9.88071 24 8.5Z" fill="#40CFFF"/>
<path d="M15.1189 13.7983L11 15L11.8324 12.087C12.1723 10.897 12.8246 9.86196 13.6967 9.12846C14.5689 8.39495 15.6167 8.00016 16.6919 8H19C19 9.33302 18.618 10.6278 17.9147 11.6784C17.2115 12.729 16.2274 13.4752 15.1189 13.7983Z" fill="#40CFFF"/>
<path d="M15.1189 3.02975L11 2L11.8324 4.497C12.1723 5.51697 12.8246 6.40413 13.6967 7.03283C14.5689 7.66152 15.6167 7.99989 16.6919 8H19C19 6.85738 18.618 5.74755 17.9148 4.84697C17.2115 3.9464 16.2274 3.30676 15.1189 3.02975Z" fill="#40CFFF"/>
<path d="M31.8915 43.6329L31.2594 39.5311L28.8622 44.675C28.5462 45.3586 28.0226 45.9423 27.3553 46.3551C26.6879 46.7679 25.9055 46.9919 25.1032 47C24.301 47.0081 23.5135 46.7999 22.8366 46.4007C22.1597 46.0014 21.6225 45.4284 21.2906 44.7514L17 36V44.0098C17 44.6683 17.0702 45.3252 17.2096 45.9709L19.8895 58.3923C19.9873 58.8455 20.2514 59.2534 20.637 59.5465C21.0226 59.8396 21.5058 59.9998 22.0044 60H28.0557C28.5785 60 29.0836 59.824 29.477 59.5048C29.8704 59.1855 30.1253 58.7447 30.1944 58.2643L31.9054 46.3688C32.036 45.4605 32.0313 44.5399 31.8915 43.6329Z" fill="#40CFFF"/>
<path d="M30.554 18L17 28.6667V34L30.554 23.3333V21.3641L32 20.2262L31.9199 18H30.554Z" fill="#40CFFF"/>
<path d="M31 21L33 19.353V14L31.0119 15.6372L31 21Z" fill="#40CFFF"/>
</svg>
