<svg width="60" height="60" viewBox="0 0 60 60" fill="none" xmlns="http://www.w3.org/2000/svg">
<path d="M30 60C21.9867 60 14.4531 56.8794 8.78672 51.2132C3.12059 45.5469 0 38.0133 0 30C0 21.9867 3.12059 14.4531 8.78672 8.78684C14.4531 3.12059 21.9867 0 30 0C38.0133 0 45.5469 3.12059 51.2133 8.78684C56.8794 14.4531 60 21.9867 60 30C60 38.0133 56.8794 45.5469 51.2133 51.2132C45.5469 56.8794 38.0133 60 30 60Z" fill="#F4F4F4"/>
<path d="M51.2133 8.78684C45.5469 3.12059 38.0133 0 30 0V60C38.0133 60 45.5469 56.8794 51.2133 51.2132C56.8794 45.5469 60 38.0133 60 30C60 21.9867 56.8794 14.4531 51.2133 8.78684Z" fill="#D6D6D6"/>
<path d="M51.2133 8.78684C45.5469 3.12059 38.0133 0 30 0C21.7158 0 15 6.71578 15 15C15 23.2842 21.7158 30 30 30C38.2842 30 45 36.7158 45 45C45 53.2842 38.2842 60 30 60C38.0133 60 45.5469 56.8794 51.2133 51.2132C56.8794 45.5469 60 38.0133 60 30C60 21.9867 56.8794 14.4531 51.2133 8.78684Z" fill="#40CFFF"/>
<path d="M51.2133 8.78684C45.5469 3.12059 38.0133 0 30 0V30C38.2842 30 45 36.7158 45 45C45 53.2842 38.2842 60 30 60C38.0133 60 45.5469 56.8794 51.2133 51.2132C56.8794 45.5469 60 38.0133 60 30C60 21.9867 56.8794 14.4531 51.2133 8.78684Z" fill="#40CFFF"/>
<path d="M30 19.3945C28.0615 19.3945 26.4844 17.8174 26.4844 15.8789C26.4844 13.9404 28.0615 12.3633 30 12.3633C31.9385 12.3633 33.5156 13.9404 33.5156 15.8789C33.5156 17.8174 31.9385 19.3945 30 19.3945Z" fill="#F4F4F4"/>
<path d="M30 47.6367C28.0615 47.6367 26.4844 46.0596 26.4844 44.1211C26.4844 42.1826 28.0615 40.6055 30 40.6055C31.9385 40.6055 33.5156 42.1826 33.5156 44.1211C33.5156 46.0596 31.9385 47.6367 30 47.6367Z" fill="#40CFFF"/>
<path d="M30 40.6055V47.6367C31.9385 47.6367 33.5156 46.0596 33.5156 44.1211C33.5156 42.1826 31.9385 40.6055 30 40.6055Z" fill="#40CFFF"/>
<path d="M30 12.3633V19.3945C31.9385 19.3945 33.5156 17.8174 33.5156 15.8789C33.5156 13.9404 31.9385 12.3633 30 12.3633Z" fill="#D6D6D6"/>
</svg>
