<svg width="120" height="100" viewBox="0 0 120 100" fill="none" xmlns="http://www.w3.org/2000/svg">
<path d="M37.3063 67.7194C38.2527 67.7194 39.0464 68.0479 39.6886 68.7049C40.3303 69.3613 40.6849 70.1784 40.753 71.1548V75.1964H49.4716C50.452 75.1964 51.2457 75.5328 51.8539 76.2062C52.4621 76.8802 52.7668 77.6712 52.7668 78.5804C52.7668 79.4563 52.4286 80.2394 51.7523 80.9297C51.0766 81.6201 50.3163 81.965 49.4716 81.965H40.753V87.5219C40.753 88.2965 40.8965 89.0287 41.1836 89.7197C41.4707 90.41 41.8672 91.0246 42.3744 91.5635C42.8817 92.1023 43.4814 92.523 44.1741 92.8266C44.8669 93.1297 45.6186 93.2812 46.4293 93.2812C47.3082 93.2812 48.0599 93.163 48.6852 92.9272C49.3104 92.6915 49.8596 92.3381 50.3328 91.8665C51.0425 91.2604 51.8283 90.9489 52.6902 90.9319C53.5514 90.9155 54.3542 91.2434 55.0974 91.9175C55.4356 92.2205 55.6886 92.566 55.8577 92.9533C56.0268 93.3406 56.1192 93.7443 56.1362 94.1649C56.1533 94.5862 56.0943 94.999 55.9593 95.4026C55.8236 95.8069 55.6047 96.1603 55.3 96.464C54.117 97.6089 52.8161 98.4848 51.3965 99.0909C49.9776 99.697 48.4565 100 46.8344 100C45.0773 100 43.4218 99.7055 41.8666 99.1163C40.312 98.5272 38.9436 97.6847 37.7612 96.5906C36.5783 95.496 35.6404 94.1825 34.9483 92.6503C34.2549 91.118 33.8918 89.4087 33.8584 87.5231V70.9033C33.8584 69.9935 34.2051 69.2365 34.8972 68.6298C35.59 68.0236 36.3928 67.72 37.3051 67.72L37.3063 67.7194Z" fill="#35ABD3"/>
<path d="M27.5364 75.614C28.456 75.614 29.2248 75.9332 29.8441 76.5716C30.4627 77.2099 30.8076 77.9825 30.8782 78.8892V96.7247C30.8782 97.6321 30.5778 98.3871 29.9771 98.9922C29.3757 99.5967 28.5623 99.9323 27.5371 100C26.6174 100 25.8397 99.731 25.2033 99.1935C24.5669 98.6567 24.1774 97.9005 24.0361 96.9266V78.6879C24.1068 77.8144 24.4784 77.0926 25.1499 76.5214C25.8219 75.9507 26.6174 75.6479 27.5364 75.614Z" fill="#35ABD3"/>
<path d="M27.5371 67.7194C28.4567 67.7194 29.2433 68.0704 29.8975 68.7718C30.5518 69.4739 30.8782 70.2926 30.8782 71.2285C30.8782 72.1637 30.5518 72.9824 29.8975 73.6844C29.2433 74.3859 28.4567 74.7369 27.5371 74.7369C26.5118 74.7006 25.6717 74.3684 25.0175 73.7382C24.3633 73.108 24.0361 72.2174 24.0361 71.0659C24.0718 70.13 24.4339 69.3385 25.1238 68.6909C25.813 68.0432 26.6174 67.7194 27.5371 67.7194Z" fill="#35ABD3"/>
<path d="M6.97097 74.5401V82.0671H14.7107C15.702 82.0671 16.5218 82.4035 17.1707 83.0775C17.8201 83.7509 18.1448 84.5589 18.1448 85.502C18.1448 86.4452 17.8201 87.2446 17.1707 87.9017C16.5212 88.5581 15.7014 88.8866 14.7107 88.8866H6.97097V96.5651C6.97097 97.5416 6.63764 98.3587 5.97099 99.0151C5.30495 99.6715 4.47655 100 3.48518 100C2.49442 100 1.66602 99.6715 0.999367 99.0151C0.333327 98.358 0 97.5416 0 96.5651V71.1549C0 70.2791 0.333327 69.4874 0.999367 68.7801C1.66602 68.0727 2.49442 67.7194 3.48518 67.7194H18.1448C19.1017 67.7194 19.9129 68.0564 20.5796 68.7298C21.2456 69.4032 21.5789 70.2112 21.5789 71.1549C21.5789 72.1314 21.2456 72.94 20.5796 73.5794C19.9129 74.2195 19.1017 74.5395 18.1448 74.5395H6.97097V74.5401Z" fill="#35ABD3"/>
<path d="M89.6427 75.6252C90.52 75.6252 91.2534 75.9442 91.8435 76.5823C92.4337 77.2204 92.7627 77.9926 92.8301 78.8989V96.7263C92.8301 97.6333 92.5436 98.3879 91.9704 98.9928C91.3967 99.597 90.6208 99.9324 89.6427 100C88.7654 100 88.0241 99.7318 87.4163 99.194C86.8092 98.6574 86.4376 97.9015 86.3028 96.9281V78.6977C86.3702 77.8246 86.7248 77.1031 87.3653 76.5321C88.0065 75.9617 88.7654 75.659 89.6421 75.6252H89.6427ZM107.404 82.021C106.628 82.021 105.894 82.1715 105.203 82.4742C104.511 82.7763 103.904 83.1872 103.381 83.708C102.859 84.2289 102.445 84.8331 102.142 85.5214C101.838 86.2096 101.686 86.9232 101.686 87.6616C101.686 88.4338 101.838 89.1637 102.142 89.8525C102.445 90.5407 102.858 91.1365 103.381 91.6405C103.904 92.1444 104.511 92.5468 105.203 92.8489C105.894 93.151 106.628 93.3021 107.404 93.3021C108.146 93.3021 108.854 93.151 109.529 92.8489C110.204 92.5468 110.802 92.1353 111.325 91.6151C111.848 91.0948 112.261 90.499 112.565 89.8271C112.869 89.1558 113.02 88.4338 113.02 87.6616C113.02 86.8561 112.869 86.1087 112.565 85.4211C112.261 84.7322 111.849 84.1364 111.325 83.6331C110.802 83.1292 110.203 82.7352 109.529 82.45C108.854 82.1642 108.146 82.0216 107.404 82.0216V82.021ZM81.9515 94.1075C82.626 94.7795 82.9636 95.5764 82.9636 96.4997C82.9636 97.423 82.626 98.2375 81.9515 98.942C81.277 99.5801 80.4756 99.8991 79.5479 99.8991C78.6202 99.8991 77.8018 99.5801 77.0939 98.942L65.3034 88.5679V96.4743C65.3034 97.4145 64.9743 98.2121 64.3162 98.8671C63.6586 99.5215 62.8402 99.849 61.8621 99.849C60.918 99.849 60.1081 99.5215 59.4336 98.8671C58.7585 98.2121 58.4209 97.4145 58.4209 96.4743V71.0934C58.4209 70.1871 58.7585 69.3979 59.4336 68.726C60.1081 68.0547 60.9174 67.7194 61.8621 67.7194C62.8408 67.7194 63.6586 68.0553 64.3162 68.726C64.9743 69.3979 65.3034 70.1871 65.3034 71.0934V78.9998L77.0939 68.726C77.8018 68.0547 78.6202 67.7194 79.5479 67.7194C80.4756 67.7194 81.277 68.0553 81.9515 68.726C82.626 69.3979 82.9636 70.1949 82.9636 71.1182C82.9636 72.0415 82.626 72.8391 81.9515 73.5104L70.1106 83.7836L81.9515 94.1075ZM89.6427 67.9206C90.52 67.9206 91.2704 68.2481 91.8945 68.9025C92.5187 69.5575 92.8307 70.3212 92.8307 71.1943C92.8307 72.0668 92.5187 72.8306 91.8945 73.4856C91.2704 74.14 90.52 74.4675 89.6427 74.4675C88.6646 74.4336 87.8632 74.1237 87.2397 73.5357C86.6155 72.9478 86.3034 72.117 86.3034 71.0427C86.3374 70.1701 86.6829 69.4312 87.341 68.8269C87.9986 68.2227 88.766 67.9206 89.6433 67.9206H89.6427ZM116.36 67.7695C117.237 67.7695 118.004 68.0801 118.662 68.7012C119.32 69.3224 119.649 70.12 119.649 71.0934V87.6616C119.649 89.3075 119.32 90.8682 118.662 92.3456C118.004 93.8229 117.111 95.1154 115.98 96.223C114.85 97.3311 113.543 98.2121 112.059 98.8671C110.574 99.5215 109.022 99.849 107.404 99.849C105.784 99.849 104.232 99.53 102.748 98.8919C101.264 98.2538 99.9566 97.3813 98.8268 96.2731C97.6963 95.165 96.7941 93.8725 96.1196 92.3951C95.445 90.9178 95.1075 89.3401 95.1075 87.661C95.1075 86.0162 95.4365 84.4549 96.0947 82.9781C96.7522 81.5008 97.6465 80.2083 98.7764 79.1001C99.9068 77.9926 101.213 77.111 102.698 76.4566C104.182 75.8016 105.75 75.4747 107.404 75.4747C109.429 75.4747 111.3 75.9279 113.021 76.8343V71.0427C113.021 70.6064 113.113 70.1865 113.299 69.784C113.484 69.381 113.729 69.0281 114.032 68.726C114.337 68.4245 114.691 68.1889 115.095 68.0209C115.5 67.8535 115.922 67.7695 116.36 67.7695Z" fill="#FF9E00"/>
<path fill-rule="evenodd" clip-rule="evenodd" d="M32.1863 34.9147C31.5094 34.8724 30.9237 35.3476 30.8788 35.9761C30.8332 36.6046 31.345 37.1479 32.0218 37.1902C32.6987 37.2325 33.2837 36.7573 33.3293 36.1288C33.3749 35.5003 32.8631 34.957 32.1863 34.9147Z" fill="#35ABD3"/>
<path fill-rule="evenodd" clip-rule="evenodd" d="M42.7612 39.4789C41.6978 39.3943 40.778 40.3448 40.7065 41.6016C40.6355 42.8583 41.4393 43.9453 42.5027 44.0298C43.5661 44.1143 44.4858 43.1638 44.5574 41.9071C44.6289 40.6504 43.8246 39.5634 42.7618 39.4795L42.7612 39.4789Z" fill="#35ABD3"/>
<path fill-rule="evenodd" clip-rule="evenodd" d="M53.5479 16.9658C53.4515 18.3924 53.8827 19.6714 54.8401 20.8011C55.8372 21.8968 57.0525 22.4923 58.4856 22.5883C59.9193 22.6842 61.1847 22.2544 62.283 21.2983C63.4204 20.3088 64.0375 19.1002 64.1339 17.673C64.2302 16.2458 63.7802 14.985 62.7831 13.8893C61.8232 12.796 60.6267 12.2017 59.193 12.1058C57.7593 12.0099 56.475 12.4391 55.3401 13.3921C54.2418 14.3482 53.6448 15.5392 53.5485 16.9658H53.5479ZM50.1853 49.96C50.0554 50.292 49.9779 50.649 49.9523 51.0302C49.8865 52.013 50.1828 52.8938 50.8421 53.6721C51.5287 54.4266 52.366 54.837 53.3533 54.9032C54.3406 54.9693 55.2127 54.6731 55.9689 54.0145C56.3555 53.6781 56.6543 53.306 56.8659 52.8963C57.8417 51.0685 60.5932 46.8968 63.6649 46.427C65.5883 46.1332 67.3507 46.5739 69.7046 48.8655C70.5328 49.7761 71.5427 50.2708 72.7336 50.3503C73.9246 50.4298 74.9766 50.0729 75.8883 49.2789C76.8335 48.4563 77.3464 47.4523 77.4263 46.2667C77.5062 45.0812 77.1323 44.0334 76.3036 43.1234C74.7138 41.3126 74.0661 40.4439 73.1386 38.071C70.0833 30.2534 73.9368 23.9371 78.4313 16.6781C78.7295 16.1967 78.8978 15.6613 78.938 15.0718C79.0045 14.089 78.6941 13.2203 78.0074 12.4658C77.3464 11.713 76.5219 11.3033 75.5346 11.2371C74.5473 11.1709 73.6624 11.4666 72.8806 12.1234C72.5043 12.4506 72.2135 12.8191 72.0079 13.227C71.6731 13.8923 71.3268 14.5376 70.9676 15.161C69.4662 17.7701 67.7428 19.9956 65.7139 21.6625C63.4204 23.5468 60.7359 24.716 57.5392 24.9163C54.3919 25.113 50.7475 24.3706 46.4891 22.4456C46.0756 22.2392 45.6207 22.1196 45.1249 22.0862C44.1376 22.0201 43.2527 22.3157 42.4709 22.9719C41.7142 23.63 41.3031 24.4507 41.2367 25.4335C41.1702 26.4163 41.4672 27.2971 42.127 28.0754C42.6222 28.6199 43.2107 28.9416 43.8479 29.1711C46.7196 30.2043 48.2552 30.2249 50.8738 32.6719C53.5229 35.1468 55.4328 39.2359 51.9306 47.0188C51.4061 48.1838 50.5164 49.1071 50.1847 49.96H50.1853Z" fill="#35ABD3"/>
<path fill-rule="evenodd" clip-rule="evenodd" d="M77.2283 0.873857C76.5384 1.45623 76.1763 2.16919 76.1406 3.01157C76.1406 4.04807 76.4677 4.84965 77.122 5.41687C77.7756 5.98409 78.6156 6.28314 79.6415 6.31579C80.5612 6.31579 81.3478 5.99982 82.002 5.36848C82.6563 4.73655 82.9827 3.99969 82.9827 3.15789C82.9827 2.31552 82.6563 1.57866 82.002 0.94731C81.3478 0.315964 80.5612 0 79.6415 0C78.7219 0 77.9175 0.29206 77.2283 0.87502V0.873857Z" fill="#35ABD3"/>
</svg>
