<svg width="18" height="19" viewBox="0 0 18 19" fill="none" xmlns="http://www.w3.org/2000/svg">
<path d="M3.3925 2.79167C3.45 3.64458 3.59375 4.47833 3.82375 5.27375L2.67375 6.42375C2.28083 5.27375 2.03167 4.05667 1.94542 2.79167H3.3925ZM12.8417 14.3108C13.6562 14.5408 14.49 14.6846 15.3333 14.7421V16.17C14.0683 16.0837 12.8512 15.8346 11.6917 15.4512L12.8417 14.3108ZM4.3125 0.875H0.958333C0.43125 0.875 0 1.30625 0 1.83333C0 10.8321 7.29292 18.125 16.2917 18.125C16.8188 18.125 17.25 17.6938 17.25 17.1667V13.8221C17.25 13.295 16.8188 12.8637 16.2917 12.8637C15.1033 12.8637 13.9438 12.6721 12.8704 12.3175C12.7746 12.2792 12.6692 12.2696 12.5733 12.2696C12.3242 12.2696 12.0846 12.3654 11.8929 12.5475L9.78458 14.6558C7.0725 13.2662 4.84917 11.0525 3.46917 8.34042L5.5775 6.23208C5.84583 5.96375 5.9225 5.59 5.81708 5.25458C5.4625 4.18125 5.27083 3.03125 5.27083 1.83333C5.27083 1.30625 4.83958 0.875 4.3125 0.875Z" fill="#13294B"/>
</svg>
