<svg width="14" height="14" viewBox="0 0 14 14" fill="none" xmlns="http://www.w3.org/2000/svg">
<path d="M6.9987 2.00004C7.91536 2.00004 8.66536 2.75004 8.66536 3.66671C8.66536 4.58337 7.91536 5.33337 6.9987 5.33337C6.08203 5.33337 5.33203 4.58337 5.33203 3.66671C5.33203 2.75004 6.08203 2.00004 6.9987 2.00004ZM6.9987 9.50004C9.2487 9.50004 11.832 10.575 11.9987 11.1667V12H1.9987V11.175C2.16536 10.575 4.7487 9.50004 6.9987 9.50004ZM6.9987 0.333374C5.15703 0.333374 3.66536 1.82504 3.66536 3.66671C3.66536 5.50837 5.15703 7.00004 6.9987 7.00004C8.84036 7.00004 10.332 5.50837 10.332 3.66671C10.332 1.82504 8.84036 0.333374 6.9987 0.333374ZM6.9987 7.83337C4.7737 7.83337 0.332031 8.95004 0.332031 11.1667V13.6667H13.6654V11.1667C13.6654 8.95004 9.2237 7.83337 6.9987 7.83337Z" fill="#13294B"/>
</svg>
